  0
SECTION
  2
HEADER
  9
$ACADVER
  1
AC2.10
  0
ENDSEC
  0
SECTION
  2
TABLES
  0
TABLE
  2
LAYER
 70
     8
  0
LAYER
  2
0
 62
     7
 70
0
  6
CONTINUOUS
  0
LAYER
  2
1
 62
     1
 70
0
  6
CONTINUOUS
  0
LAYER
  2
2
 62
     2
 70
0
  6
CONTINUOUS
  0
LAYER
  2
3
 62
     3
 70
0
  6
CONTINUOUS
  0
LAYER
  2
4
 62
     4
 70
0
  6
CONTINUOUS
  0
LAYER
  2
5
 62
     5
 70
0
  6
CONTINUOUS
  0
LAYER
  2
6
 62
     6
 70
0
  6
CONTINUOUS
  0
LAYER
  2
7
 62
     7
 70
0
  6
CONTINUOUS
  0
ENDTAB
  0
TABLE
  2
STYLE
 70
     1
  0
STYLE
 70
     0
  2
STANDARD
  3
TXT
 40
0.00
 41
1.00
 42
1.00
 50
0.00
 71
     0
  0
ENDTAB
  0
ENDSEC
  0
SECTION
  2
BLOCKS
  0
BLOCK
  8
0
  2
EPAD
 70
0
 10
0.0
 20
0.0
  0
POLYLINE
  8
0
 66
1
 70
1
 40
0.5
 41
0.5
  0
VERTEX
  8
0
 10
-0.25
 20
0.0
 42
1.0
  0
VERTEX
  8
0
 10
0.25
 20
0.0
 42
1.0
  0
SEQEND
  8
0
  0
ENDBLK
  8
0
  0
BLOCK
  8
0
  2
RPAD
 70
0
 10
0.0
 20
0.0
  0
TRACE
  8
0
 10
-0.5
 20
-0.5
 11
-0.5
 21
0.5
 12
0.5
 22
-0.5
 13
0.5
 23
0.5
  0
ENDBLK
  8
0
  0
ENDSEC
0
SECTION
2
ENTITIES
0
POLYLINE
8
0
66
1
40
0.020000
41
0.020000
0
VERTEX
8
0
10
-4.990000
20
-3.490000
0
VERTEX
8
0
10
4.990000
20
-3.490000
0
VERTEX
8
0
10
4.990000
20
3.490000
0
VERTEX
8
0
10
-4.990000
20
3.490000
0
VERTEX
8
0
10
-4.990000
20
-3.490000
0
SEQEND
8
0
0
POLYLINE
8
0
66
1
40
0.020000
41
0.020000
0
VERTEX
8
0
10
-4.900000
20
-3.400000
0
VERTEX
8
0
10
4.900000
20
-3.400000
0
VERTEX
8
0
10
4.900000
20
3.400000
0
VERTEX
8
0
10
-4.900000
20
3.400000
0
VERTEX
8
0
10
-4.900000
20
-3.400000
0
SEQEND
8
0
0
POLYLINE
8
0
66
1
40
0.018000
41
0.018000
0
VERTEX
8
0
10
-4.900000
20
3.490000
0
VERTEX
8
0
10
-4.900000
20
3.400000
0
SEQEND
8
0
0
POLYLINE
8
0
66
1
40
0.018000
41
0.018000
0
VERTEX
8
0
10
-3.920000
20
3.490000
0
VERTEX
8
0
10
-3.920000
20
3.400000
0
SEQEND
8
0
0
POLYLINE
8
0
66
1
40
0.018000
41
0.018000
0
VERTEX
8
0
10
-4.900000
20
3.400000
0
VERTEX
8
0
10
-4.990000
20
3.400000
0
SEQEND
8
0
0
POLYLINE
8
0
66
1
40
0.018000
41
0.018000
0
VERTEX
8
0
10
1.400000
20
-3.400000
0
VERTEX
8
0
10
4.900000
20
-3.400000
0
VERTEX
8
0
10
4.900000
20
-2.570000
0
VERTEX
8
0
10
1.400000
20
-2.570000
0
VERTEX
8
0
10
1.400000
20
-3.400000
0
SEQEND
8
0
0
TEXT
8
8388608
10
1.450000
20
-2.710000
40
0.080000
41
1.000000
1
FILE NAME:
0
TEXT
8
8388608
10
1.450000
20
-3.330000
40
0.080000
41
1.000000
1
BY:
0
TEXT
8
8388608
10
3.980000
20
-2.690000
40
0.080000
41
1.000000
1
DATE:
0
TEXT
8
8388608
10
3.990000
20
-3.060000
40
0.080000
41
1.000000
1
PAGE:
0
TEXT
8
8388608
10
2.070000
20
-2.723000
40
0.136000
41
0.588235
1
arduino due.DSN
0
TEXT
8
8388608
10
1.720000
20
-3.123000
40
0.140000
41
0.571429
1

0
TEXT
8
8388608
10
3.980000
20
-2.883000
40
0.136000
41
0.588235
1
6/2/2016
0
TEXT
8
8388608
10
1.670000
20
-3.330000
40
0.080000
41
1.000000
1
<NONE>
0
POLYLINE
8
0
66
1
40
0.018000
41
0.018000
0
VERTEX
8
0
10
3.920000
20
-2.570000
0
VERTEX
8
0
10
3.920000
20
-3.400000
0
SEQEND
8
0
0
POLYLINE
8
0
66
1
40
0.018000
41
0.018000
0
VERTEX
8
0
10
-2.940000
20
3.490000
0
VERTEX
8
0
10
-2.940000
20
3.400000
0
SEQEND
8
0
0
POLYLINE
8
0
66
1
40
0.018000
41
0.018000
0
VERTEX
8
0
10
-1.960000
20
3.490000
0
VERTEX
8
0
10
-1.960000
20
3.400000
0
SEQEND
8
0
0
POLYLINE
8
0
66
1
40
0.018000
41
0.018000
0
VERTEX
8
0
10
-0.980000
20
3.490000
0
VERTEX
8
0
10
-0.980000
20
3.400000
0
SEQEND
8
0
0
POLYLINE
8
0
66
1
40
0.018000
41
0.018000
0
VERTEX
8
0
10
0.000000
20
3.490000
0
VERTEX
8
0
10
0.000000
20
3.400000
0
SEQEND
8
0
0
POLYLINE
8
0
66
1
40
0.018000
41
0.018000
0
VERTEX
8
0
10
0.980000
20
3.490000
0
VERTEX
8
0
10
0.980000
20
3.400000
0
SEQEND
8
0
0
POLYLINE
8
0
66
1
40
0.018000
41
0.018000
0
VERTEX
8
0
10
1.960000
20
3.490000
0
VERTEX
8
0
10
1.960000
20
3.400000
0
SEQEND
8
0
0
POLYLINE
8
0
66
1
40
0.018000
41
0.018000
0
VERTEX
8
0
10
2.940000
20
3.490000
0
VERTEX
8
0
10
2.940000
20
3.400000
0
SEQEND
8
0
0
POLYLINE
8
0
66
1
40
0.018000
41
0.018000
0
VERTEX
8
0
10
3.920000
20
3.490000
0
VERTEX
8
0
10
3.920000
20
3.400000
0
SEQEND
8
0
0
POLYLINE
8
0
66
1
40
0.018000
41
0.018000
0
VERTEX
8
0
10
4.900000
20
3.490000
0
VERTEX
8
0
10
4.900000
20
3.400000
0
SEQEND
8
0
0
POLYLINE
8
0
66
1
40
0.018000
41
0.018000
0
VERTEX
8
0
10
-4.900000
20
-3.400000
0
VERTEX
8
0
10
-4.900000
20
-3.490000
0
SEQEND
8
0
0
POLYLINE
8
0
66
1
40
0.018000
41
0.018000
0
VERTEX
8
0
10
-3.920000
20
-3.400000
0
VERTEX
8
0
10
-3.920000
20
-3.490000
0
SEQEND
8
0
0
POLYLINE
8
0
66
1
40
0.018000
41
0.018000
0
VERTEX
8
0
10
-2.940000
20
-3.400000
0
VERTEX
8
0
10
-2.940000
20
-3.490000
0
SEQEND
8
0
0
POLYLINE
8
0
66
1
40
0.018000
41
0.018000
0
VERTEX
8
0
10
-1.960000
20
-3.400000
0
VERTEX
8
0
10
-1.960000
20
-3.490000
0
SEQEND
8
0
0
POLYLINE
8
0
66
1
40
0.018000
41
0.018000
0
VERTEX
8
0
10
-0.980000
20
-3.400000
0
VERTEX
8
0
10
-0.980000
20
-3.490000
0
SEQEND
8
0
0
POLYLINE
8
0
66
1
40
0.018000
41
0.018000
0
VERTEX
8
0
10
0.000000
20
-3.400000
0
VERTEX
8
0
10
0.000000
20
-3.490000
0
SEQEND
8
0
0
POLYLINE
8
0
66
1
40
0.018000
41
0.018000
0
VERTEX
8
0
10
0.980000
20
-3.400000
0
VERTEX
8
0
10
0.980000
20
-3.490000
0
SEQEND
8
0
0
POLYLINE
8
0
66
1
40
0.018000
41
0.018000
0
VERTEX
8
0
10
1.960000
20
-3.400000
0
VERTEX
8
0
10
1.960000
20
-3.490000
0
SEQEND
8
0
0
POLYLINE
8
0
66
1
40
0.018000
41
0.018000
0
VERTEX
8
0
10
2.940000
20
-3.400000
0
VERTEX
8
0
10
2.940000
20
-3.490000
0
SEQEND
8
0
0
POLYLINE
8
0
66
1
40
0.018000
41
0.018000
0
VERTEX
8
0
10
3.920000
20
-3.400000
0
VERTEX
8
0
10
3.920000
20
-3.490000
0
SEQEND
8
0
0
POLYLINE
8
0
66
1
40
0.018000
41
0.018000
0
VERTEX
8
0
10
4.900000
20
-3.400000
0
VERTEX
8
0
10
4.900000
20
-3.490000
0
SEQEND
8
0
0
POLYLINE
8
0
66
1
40
0.018000
41
0.018000
0
VERTEX
8
0
10
4.900000
20
-3.400000
0
VERTEX
8
0
10
4.990000
20
-3.400000
0
SEQEND
8
0
0
POLYLINE
8
0
66
1
40
0.018000
41
0.018000
0
VERTEX
8
0
10
-4.900000
20
-3.400000
0
VERTEX
8
0
10
-4.990000
20
-3.400000
0
SEQEND
8
0
0
POLYLINE
8
0
66
1
40
0.018000
41
0.018000
0
VERTEX
8
0
10
-4.900000
20
2.720000
0
VERTEX
8
0
10
-4.990000
20
2.720000
0
SEQEND
8
0
0
POLYLINE
8
0
66
1
40
0.018000
41
0.018000
0
VERTEX
8
0
10
-4.900000
20
2.040000
0
VERTEX
8
0
10
-4.990000
20
2.040000
0
SEQEND
8
0
0
POLYLINE
8
0
66
1
40
0.018000
41
0.018000
0
VERTEX
8
0
10
-4.900000
20
1.360000
0
VERTEX
8
0
10
-4.990000
20
1.360000
0
SEQEND
8
0
0
POLYLINE
8
0
66
1
40
0.018000
41
0.018000
0
VERTEX
8
0
10
-4.900000
20
0.680000
0
VERTEX
8
0
10
-4.990000
20
0.680000
0
SEQEND
8
0
0
POLYLINE
8
0
66
1
40
0.018000
41
0.018000
0
VERTEX
8
0
10
-4.900000
20
0.000000
0
VERTEX
8
0
10
-4.990000
20
0.000000
0
SEQEND
8
0
0
POLYLINE
8
0
66
1
40
0.018000
41
0.018000
0
VERTEX
8
0
10
-4.900000
20
-0.680000
0
VERTEX
8
0
10
-4.990000
20
-0.680000
0
SEQEND
8
0
0
POLYLINE
8
0
66
1
40
0.018000
41
0.018000
0
VERTEX
8
0
10
-4.900000
20
-1.360000
0
VERTEX
8
0
10
-4.990000
20
-1.360000
0
SEQEND
8
0
0
POLYLINE
8
0
66
1
40
0.018000
41
0.018000
0
VERTEX
8
0
10
-4.900000
20
-2.040000
0
VERTEX
8
0
10
-4.990000
20
-2.040000
0
SEQEND
8
0
0
POLYLINE
8
0
66
1
40
0.018000
41
0.018000
0
VERTEX
8
0
10
-4.900000
20
-2.720000
0
VERTEX
8
0
10
-4.990000
20
-2.720000
0
SEQEND
8
0
0
POLYLINE
8
0
66
1
40
0.018000
41
0.018000
0
VERTEX
8
0
10
4.990000
20
3.400000
0
VERTEX
8
0
10
4.900000
20
3.400000
0
SEQEND
8
0
0
POLYLINE
8
0
66
1
40
0.018000
41
0.018000
0
VERTEX
8
0
10
4.990000
20
2.720000
0
VERTEX
8
0
10
4.900000
20
2.720000
0
SEQEND
8
0
0
POLYLINE
8
0
66
1
40
0.018000
41
0.018000
0
VERTEX
8
0
10
4.990000
20
2.040000
0
VERTEX
8
0
10
4.900000
20
2.040000
0
SEQEND
8
0
0
POLYLINE
8
0
66
1
40
0.018000
41
0.018000
0
VERTEX
8
0
10
4.990000
20
1.360000
0
VERTEX
8
0
10
4.900000
20
1.360000
0
SEQEND
8
0
0
POLYLINE
8
0
66
1
40
0.018000
41
0.018000
0
VERTEX
8
0
10
4.990000
20
0.680000
0
VERTEX
8
0
10
4.900000
20
0.680000
0
SEQEND
8
0
0
POLYLINE
8
0
66
1
40
0.018000
41
0.018000
0
VERTEX
8
0
10
4.990000
20
0.000000
0
VERTEX
8
0
10
4.900000
20
0.000000
0
SEQEND
8
0
0
POLYLINE
8
0
66
1
40
0.018000
41
0.018000
0
VERTEX
8
0
10
4.990000
20
-0.680000
0
VERTEX
8
0
10
4.900000
20
-0.680000
0
SEQEND
8
0
0
POLYLINE
8
0
66
1
40
0.018000
41
0.018000
0
VERTEX
8
0
10
4.990000
20
-1.360000
0
VERTEX
8
0
10
4.900000
20
-1.360000
0
SEQEND
8
0
0
POLYLINE
8
0
66
1
40
0.018000
41
0.018000
0
VERTEX
8
0
10
4.990000
20
-2.040000
0
VERTEX
8
0
10
4.900000
20
-2.040000
0
SEQEND
8
0
0
POLYLINE
8
0
66
1
40
0.018000
41
0.018000
0
VERTEX
8
0
10
4.990000
20
-2.720000
0
VERTEX
8
0
10
4.900000
20
-2.720000
0
SEQEND
8
0
0
TEXT
8
8388608
10
-4.450000
20
3.410000
40
0.080000
41
1.000000
1
A
0
TEXT
8
8388608
10
-3.470000
20
3.400000
40
0.080000
41
1.000000
1
B
0
TEXT
8
8388608
10
-2.490000
20
3.400000
40
0.080000
41
1.000000
1
C
0
TEXT
8
8388608
10
-1.510000
20
3.400000
40
0.080000
41
1.000000
1
D
0
TEXT
8
8388608
10
-0.530000
20
3.400000
40
0.080000
41
1.000000
1
E
0
TEXT
8
8388608
10
0.450000
20
3.400000
40
0.080000
41
1.000000
1
F
0
TEXT
8
8388608
10
1.430000
20
3.400000
40
0.080000
41
1.000000
1
G
0
TEXT
8
8388608
10
2.410000
20
3.400000
40
0.080000
41
1.000000
1
H
0
TEXT
8
8388608
10
3.390000
20
3.400000
40
0.080000
41
1.000000
1
J
0
TEXT
8
8388608
10
4.370000
20
3.400000
40
0.080000
41
1.000000
1
K
0
POLYLINE
8
0
66
1
40
0.018000
41
0.018000
0
VERTEX
8
0
10
-3.920000
20
-3.400000
0
VERTEX
8
0
10
-3.920000
20
-3.490000
0
SEQEND
8
0
0
TEXT
8
8388608
10
-4.450000
20
-3.490000
40
0.080000
41
1.000000
1
A
0
TEXT
8
8388608
10
-3.470000
20
-3.490000
40
0.080000
41
1.000000
1
B
0
TEXT
8
8388608
10
-2.490000
20
-3.490000
40
0.080000
41
1.000000
1
C
0
TEXT
8
8388608
10
-1.510000
20
-3.490000
40
0.080000
41
1.000000
1
D
0
TEXT
8
8388608
10
-0.530000
20
-3.490000
40
0.080000
41
1.000000
1
E
0
TEXT
8
8388608
10
0.450000
20
-3.490000
40
0.080000
41
1.000000
1
F
0
TEXT
8
8388608
10
1.430000
20
-3.490000
40
0.080000
41
1.000000
1
G
0
TEXT
8
8388608
10
2.410000
20
-3.490000
40
0.080000
41
1.000000
1
H
0
TEXT
8
8388608
10
3.390000
20
-3.490000
40
0.080000
41
1.000000
1
J
0
TEXT
8
8388608
10
4.370000
20
-3.490000
40
0.080000
41
1.000000
1
K
0
TEXT
8
8388608
10
-4.980000
20
3.012000
40
0.096000
41
0.833333
1
0
0
TEXT
8
8388608
10
-4.980000
20
2.332000
40
0.096000
41
0.833333
1
1
0
TEXT
8
8388608
10
-4.980000
20
1.652000
40
0.096000
41
0.833333
1
2
0
TEXT
8
8388608
10
-4.990000
20
0.972000
40
0.096000
41
0.833333
1
3
0
TEXT
8
8388608
10
-4.990000
20
0.292000
40
0.096000
41
0.833333
1
4
0
TEXT
8
8388608
10
-4.990000
20
-0.388000
40
0.096000
41
0.833333
1
5
0
TEXT
8
8388608
10
-4.990000
20
-1.068000
40
0.096000
41
0.833333
1
6
0
TEXT
8
8388608
10
-4.990000
20
-1.748000
40
0.096000
41
0.833333
1
7
0
TEXT
8
8388608
10
-4.990000
20
-2.428000
40
0.096000
41
0.833333
1
8
0
TEXT
8
8388608
10
-4.990000
20
-3.108000
40
0.096000
41
0.833333
1
9
0
TEXT
8
8388608
10
4.910000
20
3.012000
40
0.096000
41
0.833333
1
0
0
TEXT
8
8388608
10
4.910000
20
2.332000
40
0.096000
41
0.833333
1
1
0
TEXT
8
8388608
10
4.910000
20
1.652000
40
0.096000
41
0.833333
1
2
0
TEXT
8
8388608
10
4.910000
20
0.972000
40
0.096000
41
0.833333
1
3
0
TEXT
8
8388608
10
4.910000
20
0.292000
40
0.096000
41
0.833333
1
4
0
TEXT
8
8388608
10
4.910000
20
-0.388000
40
0.096000
41
0.833333
1
5
0
TEXT
8
8388608
10
4.910000
20
-1.068000
40
0.096000
41
0.833333
1
6
0
TEXT
8
8388608
10
4.910000
20
-1.748000
40
0.096000
41
0.833333
1
7
0
TEXT
8
8388608
10
4.910000
20
-2.428000
40
0.096000
41
0.833333
1
8
0
TEXT
8
8388608
10
4.910000
20
-3.108000
40
0.096000
41
0.833333
1
9
0
TEXT
8
8388608
10
2.070000
20
-3.148000
40
0.096000
41
0.833333
1
D:\arduino due.DSN
0
TEXT
8
8388608
10
1.370000
20
-3.140000
40
0.080000
41
1.000000
1
PATH:
0
TEXT
8
8388608
10
3.960000
20
-3.188000
40
0.096000
41
0.833333
1
1
0
TEXT
8
8388608
10
4.120000
20
-3.188000
40
0.096000
41
0.833333
1
of
0
TEXT
8
8388608
10
4.360000
20
-3.188000
40
0.096000
41
0.833333
1
1
0
TEXT
8
8388608
10
3.190000
20
-3.340000
40
0.080000
41
1.000000
1
REV:
0
TEXT
8
8388608
10
3.360000
20
-3.348000
40
0.096000
41
0.833333
1
<NONE>
0
TEXT
8
8388608
10
3.900000
20
-3.340000
40
0.080000
41
1.000000
1
TIME:
0
TEXT
8
8388608
10
4.060000
20
-3.340000
40
0.080000
41
1.000000
1
10:56:31 PM
0
TEXT
8
8388608
10
1.220000
20
-2.930000
40
0.080000
41
1.000000
1
DESIGN TITLE:
0
TEXT
8
8388608
10
2.070000
20
-2.958000
40
0.136000
41
0.588235
1
D:\arduino due.DSN
0
POLYLINE
8
0
66
1
40
0.016000
41
0.016000
0
VERTEX
8
0
10
2.050000
20
2.450000
0
VERTEX
8
0
10
2.050000
20
2.550000
0
SEQEND
8
0
0
POLYLINE
8
0
66
1
40
0.016000
41
0.016000
0
VERTEX
8
0
10
1.450000
20
3.050000
0
VERTEX
8
0
10
1.450000
20
3.100000
0
VERTEX
8
0
10
1.750000
20
3.100000
0
SEQEND
8
0
0
POLYLINE
8
0
66
1
40
0.016000
41
0.016000
0
VERTEX
8
0
10
2.050000
20
3.050000
0
VERTEX
8
0
10
2.050000
20
3.100000
0
VERTEX
8
0
10
1.750000
20
3.100000
0
VERTEX
8
0
10
1.750000
20
3.100000
0
SEQEND
8
0
0
POLYLINE
8
0
66
1
40
0.016000
41
0.016000
0
VERTEX
8
0
10
2.050000
20
2.150000
0
VERTEX
8
0
10
2.050000
20
2.050000
0
VERTEX
8
0
10
1.750000
20
2.050000
0
SEQEND
8
0
0
POLYLINE
8
0
66
1
40
0.016000
41
0.016000
0
VERTEX
8
0
10
1.450000
20
2.150000
0
VERTEX
8
0
10
1.450000
20
2.050000
0
VERTEX
8
0
10
1.750000
20
2.050000
0
SEQEND
8
0
0
POLYLINE
8
0
66
1
40
0.016000
41
0.016000
0
VERTEX
8
0
10
1.750000
20
2.000000
0
VERTEX
8
0
10
1.750000
20
2.050000
0
SEQEND
8
0
0
POLYLINE
8
0
66
1
40
0.016000
41
0.016000
0
VERTEX
8
0
10
2.050000
20
0.900000
0
VERTEX
8
0
10
2.050000
20
1.000000
0
SEQEND
8
0
0
POLYLINE
8
0
66
1
40
0.016000
41
0.016000
0
VERTEX
8
0
10
1.450000
20
1.500000
0
VERTEX
8
0
10
1.450000
20
1.550000
0
VERTEX
8
0
10
1.750000
20
1.550000
0
SEQEND
8
0
0
POLYLINE
8
0
66
1
40
0.016000
41
0.016000
0
VERTEX
8
0
10
2.050000
20
1.500000
0
VERTEX
8
0
10
2.050000
20
1.550000
0
VERTEX
8
0
10
1.750000
20
1.550000
0
VERTEX
8
0
10
1.750000
20
1.550000
0
SEQEND
8
0
0
POLYLINE
8
0
66
1
40
0.016000
41
0.016000
0
VERTEX
8
0
10
2.050000
20
0.600000
0
VERTEX
8
0
10
2.050000
20
0.500000
0
VERTEX
8
0
10
1.750000
20
0.500000
0
SEQEND
8
0
0
POLYLINE
8
0
66
1
40
0.016000
41
0.016000
0
VERTEX
8
0
10
1.450000
20
0.600000
0
VERTEX
8
0
10
1.450000
20
0.500000
0
VERTEX
8
0
10
1.750000
20
0.500000
0
SEQEND
8
0
0
POLYLINE
8
0
66
1
40
0.016000
41
0.016000
0
VERTEX
8
0
10
1.750000
20
0.450000
0
VERTEX
8
0
10
1.750000
20
0.500000
0
SEQEND
8
0
0
POLYLINE
8
0
66
1
40
0.016000
41
0.016000
0
VERTEX
8
0
10
2.050000
20
-0.700000
0
VERTEX
8
0
10
2.050000
20
-0.600000
0
SEQEND
8
0
0
POLYLINE
8
0
66
1
40
0.016000
41
0.016000
0
VERTEX
8
0
10
1.450000
20
-0.100000
0
VERTEX
8
0
10
1.450000
20
-0.050000
0
VERTEX
8
0
10
1.750000
20
-0.050000
0
SEQEND
8
0
0
POLYLINE
8
0
66
1
40
0.016000
41
0.016000
0
VERTEX
8
0
10
2.050000
20
-0.100000
0
VERTEX
8
0
10
2.050000
20
-0.050000
0
VERTEX
8
0
10
1.750000
20
-0.050000
0
VERTEX
8
0
10
1.750000
20
-0.050000
0
SEQEND
8
0
0
POLYLINE
8
0
66
1
40
0.016000
41
0.016000
0
VERTEX
8
0
10
2.050000
20
-1.000000
0
VERTEX
8
0
10
2.050000
20
-1.100000
0
VERTEX
8
0
10
1.750000
20
-1.100000
0
SEQEND
8
0
0
POLYLINE
8
0
66
1
40
0.016000
41
0.016000
0
VERTEX
8
0
10
1.450000
20
-1.000000
0
VERTEX
8
0
10
1.450000
20
-1.100000
0
VERTEX
8
0
10
1.750000
20
-1.100000
0
SEQEND
8
0
0
POLYLINE
8
0
66
1
40
0.016000
41
0.016000
0
VERTEX
8
0
10
1.750000
20
-1.150000
0
VERTEX
8
0
10
1.750000
20
-1.100000
0
SEQEND
8
0
0
POLYLINE
8
0
66
1
40
0.016000
41
0.016000
0
VERTEX
8
0
10
0.750000
20
-1.900000
0
VERTEX
8
0
10
0.750000
20
-1.800000
0
SEQEND
8
0
0
POLYLINE
8
0
66
1
40
0.016000
41
0.016000
0
VERTEX
8
0
10
0.150000
20
-1.300000
0
VERTEX
8
0
10
0.150000
20
-1.250000
0
VERTEX
8
0
10
0.450000
20
-1.250000
0
SEQEND
8
0
0
POLYLINE
8
0
66
1
40
0.016000
41
0.016000
0
VERTEX
8
0
10
0.750000
20
-1.300000
0
VERTEX
8
0
10
0.750000
20
-1.250000
0
VERTEX
8
0
10
0.450000
20
-1.250000
0
VERTEX
8
0
10
0.450000
20
-1.250000
0
SEQEND
8
0
0
POLYLINE
8
0
66
1
40
0.016000
41
0.016000
0
VERTEX
8
0
10
0.750000
20
-2.200000
0
VERTEX
8
0
10
0.750000
20
-2.300000
0
VERTEX
8
0
10
0.450000
20
-2.300000
0
SEQEND
8
0
0
POLYLINE
8
0
66
1
40
0.016000
41
0.016000
0
VERTEX
8
0
10
0.150000
20
-2.200000
0
VERTEX
8
0
10
0.150000
20
-2.300000
0
VERTEX
8
0
10
0.450000
20
-2.300000
0
SEQEND
8
0
0
POLYLINE
8
0
66
1
40
0.016000
41
0.016000
0
VERTEX
8
0
10
0.450000
20
-2.350000
0
VERTEX
8
0
10
0.450000
20
-2.300000
0
SEQEND
8
0
0
POLYLINE
8
0
66
1
40
0.016000
41
0.016000
0
VERTEX
8
0
10
1.450000
20
2.450000
0
VERTEX
8
0
10
1.450000
20
2.500000
0
SEQEND
8
0
0
POLYLINE
8
0
66
1
40
0.016000
41
0.016000
0
VERTEX
8
0
10
-2.200000
20
2.000000
0
VERTEX
8
0
10
-1.550000
20
2.000000
0
VERTEX
8
0
10
-1.550000
20
2.500000
0
VERTEX
8
0
10
1.450000
20
2.500000
0
SEQEND
8
0
0
POLYLINE
8
0
66
1
40
0.016000
41
0.016000
0
VERTEX
8
0
10
1.450000
20
2.550000
0
VERTEX
8
0
10
1.450000
20
2.500000
0
SEQEND
8
0
0
POLYLINE
8
0
66
1
40
0.016000
41
0.016000
0
VERTEX
8
0
10
1.450000
20
-0.700000
0
VERTEX
8
0
10
1.450000
20
-0.650000
0
SEQEND
8
0
0
POLYLINE
8
0
66
1
40
0.016000
41
0.016000
0
VERTEX
8
0
10
-2.200000
20
1.500000
0
VERTEX
8
0
10
-1.400000
20
1.500000
0
VERTEX
8
0
10
-1.400000
20
0.550000
0
VERTEX
8
0
10
0.900000
20
0.550000
0
VERTEX
8
0
10
0.900000
20
-0.650000
0
VERTEX
8
0
10
1.450000
20
-0.650000
0
SEQEND
8
0
0
POLYLINE
8
0
66
1
40
0.016000
41
0.016000
0
VERTEX
8
0
10
1.450000
20
-0.600000
0
VERTEX
8
0
10
1.450000
20
-0.650000
0
SEQEND
8
0
0
POLYLINE
8
0
66
1
40
0.016000
41
0.016000
0
VERTEX
8
0
10
1.450000
20
0.900000
0
VERTEX
8
0
10
1.450000
20
0.950000
0
SEQEND
8
0
0
POLYLINE
8
0
66
1
40
0.016000
41
0.016000
0
VERTEX
8
0
10
1.450000
20
1.000000
0
VERTEX
8
0
10
1.450000
20
0.950000
0
SEQEND
8
0
0
POLYLINE
8
0
66
1
40
0.016000
41
0.016000
0
VERTEX
8
0
10
0.150000
20
-1.900000
0
VERTEX
8
0
10
0.150000
20
-1.850000
0
SEQEND
8
0
0
POLYLINE
8
0
66
1
40
0.016000
41
0.016000
0
VERTEX
8
0
10
-2.200000
20
1.250000
0
VERTEX
8
0
10
-1.650000
20
1.250000
0
VERTEX
8
0
10
-1.650000
20
0.000000
0
VERTEX
8
0
10
-0.400000
20
0.000000
0
VERTEX
8
0
10
-0.400000
20
-1.850000
0
VERTEX
8
0
10
0.150000
20
-1.850000
0
SEQEND
8
0
0
POLYLINE
8
0
66
1
40
0.016000
41
0.016000
0
VERTEX
8
0
10
0.150000
20
-1.800000
0
VERTEX
8
0
10
0.150000
20
-1.850000
0
SEQEND
8
0
0
POLYLINE
8
0
66
1
40
0.016000
41
0.016000
0
VERTEX
8
0
10
1.450000
20
0.950000
0
VERTEX
8
0
10
-1.050000
20
0.950000
0
VERTEX
8
0
10
-1.050000
20
1.750000
0
VERTEX
8
0
10
-2.200000
20
1.750000
0
SEQEND
8
0
0
POLYLINE
8
0
66
1
40
0.016000
41
0.016000
0
VERTEX
8
0
10
-4.450000
20
-3.000000
0
VERTEX
8
0
10
-2.300000
20
-3.000000
0
VERTEX
8
0
10
-2.300000
20
-1.450000
0
VERTEX
8
0
10
-4.450000
20
-1.450000
0
VERTEX
8
0
10
-4.450000
20
-3.000000
0
SEQEND
8
0
0
TEXT
8
128
10
-3.600000
20
-2.170000
40
0.240000
41
0.333333
1
Xee B
0
TEXT
8
128
10
-3.640000
20
-2.520000
40
0.240000
41
0.333333
1
Module
0
POLYLINE
8
0
66
1
40
0.016000
41
0.016000
0
VERTEX
8
0
10
-2.300000
20
-1.750000
0
VERTEX
8
0
10
-1.750000
20
-1.750000
0
SEQEND
8
0
0
POLYLINE
8
0
66
1
40
0.016000
41
0.016000
0
VERTEX
8
0
10
-2.300000
20
-2.000000
0
VERTEX
8
0
10
-1.750000
20
-2.000000
0
SEQEND
8
0
0
POLYLINE
8
0
66
1
40
0.016000
41
0.016000
0
VERTEX
8
0
10
-2.300000
20
-2.550000
0
VERTEX
8
0
10
-1.750000
20
-2.550000
0
SEQEND
8
0
0
POLYLINE
8
0
66
1
40
0.016000
41
0.016000
0
VERTEX
8
0
10
-2.300000
20
-2.800000
0
VERTEX
8
0
10
-1.750000
20
-2.800000
0
SEQEND
8
0
0
TEXT
8
128
10
-2.120000
20
-1.648000
40
0.096000
41
0.833333
1
VCC
0
TEXT
8
128
10
-2.120000
20
-1.948000
40
0.096000
41
0.833333
1
GND
0
TEXT
8
128
10
-2.080000
20
-2.498000
40
0.096000
41
0.833333
1
TX
0
TEXT
8
128
10
-2.080000
20
-2.748000
40
0.096000
41
0.833333
1
RX
0
POLYLINE
8
0
66
1
40
0.016000
41
0.016000
0
VERTEX
8
0
10
-1.550000
20
-2.100000
0
VERTEX
8
0
10
-1.550000
20
-2.200000
0
SEQEND
8
0
0
POLYLINE
8
0
66
1
40
0.016000
41
0.016000
0
VERTEX
8
0
10
-1.650000
20
-2.200000
0
VERTEX
8
0
10
-1.450000
20
-2.200000
0
SEQEND
8
0
0
POLYLINE
8
0
66
1
40
0.016000
41
0.016000
0
VERTEX
8
0
10
-1.600000
20
-2.250000
0
VERTEX
8
0
10
-1.500000
20
-2.250000
0
SEQEND
8
0
0
POLYLINE
8
0
66
1
40
0.016000
41
0.016000
0
VERTEX
8
0
10
-1.560000
20
-2.300000
0
VERTEX
8
0
10
-1.540000
20
-2.300000
0
SEQEND
8
0
0
POLYLINE
8
0
66
1
40
0.016000
41
0.016000
0
VERTEX
8
0
10
-1.550000
20
-1.750000
0
VERTEX
8
0
10
-1.550000
20
-1.650000
0
SEQEND
8
0
0
POLYLINE
8
0
66
1
40
0.016000
41
0.016000
0
VERTEX
8
0
10
-1.600000
20
-1.450000
0
VERTEX
8
0
10
-1.550000
20
-1.350000
0
VERTEX
8
0
10
-1.500000
20
-1.450000
0
VERTEX
8
0
10
-1.600000
20
-1.450000
0
SEQEND
8
0
0
POLYLINE
8
0
66
1
40
0.016000
41
0.016000
0
VERTEX
8
0
10
-1.550000
20
-1.550000
0
VERTEX
8
0
10
-1.550000
20
-1.350000
0
SEQEND
8
0
0
TEXT
8
0
10
-1.650000
20
-1.290000
40
0.080000
41
1.000000
1
5V
0
POLYLINE
8
0
66
1
40
0.016000
41
0.016000
0
VERTEX
8
0
10
-1.550000
20
-1.650000
0
VERTEX
8
0
10
-1.550000
20
-1.550000
0
SEQEND
8
0
0
POLYLINE
8
0
66
1
40
0.016000
41
0.016000
0
VERTEX
8
0
10
-1.750000
20
-2.000000
0
VERTEX
8
0
10
-1.550000
20
-2.000000
0
VERTEX
8
0
10
-1.550000
20
-2.100000
0
SEQEND
8
0
0
POLYLINE
8
0
66
1
40
0.016000
41
0.016000
0
VERTEX
8
0
10
-1.750000
20
-1.750000
0
VERTEX
8
0
10
-1.550000
20
-1.750000
0
SEQEND
8
0
0
POLYLINE
8
0
66
1
40
0.016000
41
0.016000
0
VERTEX
8
0
10
2.150000
20
2.350000
0
VERTEX
8
0
10
1.950000
20
2.350000
0
VERTEX
8
0
10
2.050000
20
2.250000
0
VERTEX
8
0
10
2.150000
20
2.350000
0
SEQEND
8
0
0
POLYLINE
8
0
66
1
40
0.016000
41
0.016000
0
VERTEX
8
0
10
2.150000
20
2.250000
0
VERTEX
8
0
10
1.950000
20
2.250000
0
SEQEND
8
0
0
POLYLINE
8
0
66
1
40
0.016000
41
0.016000
0
VERTEX
8
0
10
2.150000
20
2.300000
0
VERTEX
8
0
10
2.250000
20
2.200000
0
SEQEND
8
0
0
POLYLINE
8
0
66
1
40
0.016000
41
0.016000
0
VERTEX
8
0
10
2.200000
20
2.300000
0
VERTEX
8
0
10
2.300000
20
2.200000
0
SEQEND
8
0
0
POLYLINE
8
0
66
1
40
0.016000
41
0.016000
0
VERTEX
8
0
10
2.300000
20
2.250000
0
VERTEX
8
0
10
2.300000
20
2.200000
0
VERTEX
8
0
10
2.250000
20
2.200000
0
SEQEND
8
0
0
POLYLINE
8
0
66
1
40
0.016000
41
0.016000
0
VERTEX
8
0
10
2.250000
20
2.250000
0
VERTEX
8
0
10
2.250000
20
2.200000
0
VERTEX
8
0
10
2.200000
20
2.200000
0
SEQEND
8
0
0
POLYLINE
8
0
66
1
40
0.016000
41
0.016000
0
VERTEX
8
0
10
2.050000
20
2.450000
0
VERTEX
8
0
10
2.050000
20
2.350000
0
SEQEND
8
0
0
POLYLINE
8
0
66
1
40
0.016000
41
0.016000
0
VERTEX
8
0
10
2.050000
20
2.150000
0
VERTEX
8
0
10
2.050000
20
2.250000
0
SEQEND
8
0
0
TEXT
8
0
10
2.358000
20
2.223000
40
0.120000
41
0.666667
1
D1
0
TEXT
8
0
10
2.358000
20
2.118000
40
0.080000
41
1.000000
1
IR LED
0
POLYLINE
8
0
66
1
40
0.016000
41
0.016000
0
VERTEX
8
0
10
1.400000
20
2.250000
0
VERTEX
8
0
10
1.500000
20
2.250000
0
VERTEX
8
0
10
1.450000
20
2.350000
0
VERTEX
8
0
10
1.400000
20
2.250000
0
SEQEND
8
0
0
POLYLINE
8
0
66
1
40
0.016000
41
0.016000
0
VERTEX
8
0
10
1.400000
20
2.350000
0
VERTEX
8
0
10
1.500000
20
2.350000
0
SEQEND
8
0
0
POLYLINE
8
0
66
1
40
0.016000
41
0.016000
0
VERTEX
8
0
10
1.450000
20
2.450000
0
VERTEX
8
0
10
1.450000
20
2.350000
0
SEQEND
8
0
0
POLYLINE
8
0
66
1
40
0.016000
41
0.016000
0
VERTEX
8
0
10
1.450000
20
2.150000
0
VERTEX
8
0
10
1.450000
20
2.250000
0
SEQEND
8
0
0
TEXT
8
0
10
1.558000
20
2.223000
40
0.120000
41
0.666667
1
D2
0
TEXT
8
0
10
1.558000
20
2.118000
40
0.080000
41
1.000000
1
photo diode
0
POLYLINE
8
0
66
1
40
0.016000
41
0.016000
0
VERTEX
8
0
10
2.010000
20
2.650000
0
VERTEX
8
0
10
2.090000
20
2.650000
0
VERTEX
8
0
10
2.090000
20
2.950000
0
VERTEX
8
0
10
2.010000
20
2.950000
0
VERTEX
8
0
10
2.010000
20
2.650000
0
SEQEND
8
0
0
POLYLINE
8
0
66
1
40
0.016000
41
0.016000
0
VERTEX
8
0
10
2.050000
20
3.050000
0
VERTEX
8
0
10
2.050000
20
2.950000
0
SEQEND
8
0
0
POLYLINE
8
0
66
1
40
0.016000
41
0.016000
0
VERTEX
8
0
10
2.050000
20
2.550000
0
VERTEX
8
0
10
2.050000
20
2.650000
0
SEQEND
8
0
0
TEXT
8
0
10
2.148000
20
2.823000
40
0.120000
41
0.666667
1
R1
0
TEXT
8
0
10
2.148000
20
2.718000
40
0.080000
41
1.000000
1
330R
0
POLYLINE
8
0
66
1
40
0.016000
41
0.016000
0
VERTEX
8
0
10
1.410000
20
2.650000
0
VERTEX
8
0
10
1.490000
20
2.650000
0
VERTEX
8
0
10
1.490000
20
2.950000
0
VERTEX
8
0
10
1.410000
20
2.950000
0
VERTEX
8
0
10
1.410000
20
2.650000
0
SEQEND
8
0
0
POLYLINE
8
0
66
1
40
0.016000
41
0.016000
0
VERTEX
8
0
10
1.450000
20
3.050000
0
VERTEX
8
0
10
1.450000
20
2.950000
0
SEQEND
8
0
0
POLYLINE
8
0
66
1
40
0.016000
41
0.016000
0
VERTEX
8
0
10
1.450000
20
2.550000
0
VERTEX
8
0
10
1.450000
20
2.650000
0
SEQEND
8
0
0
TEXT
8
0
10
1.548000
20
2.823000
40
0.120000
41
0.666667
1
R2
0
TEXT
8
0
10
1.548000
20
2.718000
40
0.080000
41
1.000000
1
10k
0
POLYLINE
8
0
66
1
40
0.016000
41
0.016000
0
VERTEX
8
0
10
1.700000
20
3.200000
0
VERTEX
8
0
10
1.750000
20
3.300000
0
VERTEX
8
0
10
1.800000
20
3.200000
0
VERTEX
8
0
10
1.700000
20
3.200000
0
SEQEND
8
0
0
POLYLINE
8
0
66
1
40
0.016000
41
0.016000
0
VERTEX
8
0
10
1.750000
20
3.100000
0
VERTEX
8
0
10
1.750000
20
3.300000
0
SEQEND
8
0
0
TEXT
8
0
10
1.550000
20
3.260000
40
0.080000
41
1.000000
1
3.3V
0
CIRCLE
8
16384
10
1.750000
20
3.100000
40
0.020000
0
POLYLINE
8
0
66
1
40
0.016000
41
0.016000
0
VERTEX
8
0
10
1.750000
20
2.000000
0
VERTEX
8
0
10
1.750000
20
1.900000
0
SEQEND
8
0
0
POLYLINE
8
0
66
1
40
0.016000
41
0.016000
0
VERTEX
8
0
10
1.650000
20
1.900000
0
VERTEX
8
0
10
1.850000
20
1.900000
0
SEQEND
8
0
0
POLYLINE
8
0
66
1
40
0.016000
41
0.016000
0
VERTEX
8
0
10
1.700000
20
1.850000
0
VERTEX
8
0
10
1.800000
20
1.850000
0
SEQEND
8
0
0
POLYLINE
8
0
66
1
40
0.016000
41
0.016000
0
VERTEX
8
0
10
1.740000
20
1.800000
0
VERTEX
8
0
10
1.760000
20
1.800000
0
SEQEND
8
0
0
CIRCLE
8
16384
10
1.750000
20
2.050000
40
0.020000
0
POLYLINE
8
0
66
1
40
0.016000
41
0.016000
0
VERTEX
8
0
10
2.150000
20
0.800000
0
VERTEX
8
0
10
1.950000
20
0.800000
0
VERTEX
8
0
10
2.050000
20
0.700000
0
VERTEX
8
0
10
2.150000
20
0.800000
0
SEQEND
8
0
0
POLYLINE
8
0
66
1
40
0.016000
41
0.016000
0
VERTEX
8
0
10
2.150000
20
0.700000
0
VERTEX
8
0
10
1.950000
20
0.700000
0
SEQEND
8
0
0
POLYLINE
8
0
66
1
40
0.016000
41
0.016000
0
VERTEX
8
0
10
2.150000
20
0.750000
0
VERTEX
8
0
10
2.250000
20
0.650000
0
SEQEND
8
0
0
POLYLINE
8
0
66
1
40
0.016000
41
0.016000
0
VERTEX
8
0
10
2.200000
20
0.750000
0
VERTEX
8
0
10
2.300000
20
0.650000
0
SEQEND
8
0
0
POLYLINE
8
0
66
1
40
0.016000
41
0.016000
0
VERTEX
8
0
10
2.300000
20
0.700000
0
VERTEX
8
0
10
2.300000
20
0.650000
0
VERTEX
8
0
10
2.250000
20
0.650000
0
SEQEND
8
0
0
POLYLINE
8
0
66
1
40
0.016000
41
0.016000
0
VERTEX
8
0
10
2.250000
20
0.700000
0
VERTEX
8
0
10
2.250000
20
0.650000
0
VERTEX
8
0
10
2.200000
20
0.650000
0
SEQEND
8
0
0
POLYLINE
8
0
66
1
40
0.016000
41
0.016000
0
VERTEX
8
0
10
2.050000
20
0.900000
0
VERTEX
8
0
10
2.050000
20
0.800000
0
SEQEND
8
0
0
POLYLINE
8
0
66
1
40
0.016000
41
0.016000
0
VERTEX
8
0
10
2.050000
20
0.600000
0
VERTEX
8
0
10
2.050000
20
0.700000
0
SEQEND
8
0
0
TEXT
8
0
10
2.358000
20
0.673000
40
0.120000
41
0.666667
1
D1
0
TEXT
8
0
10
2.358000
20
0.568000
40
0.080000
41
1.000000
1
IR LED
0
POLYLINE
8
0
66
1
40
0.016000
41
0.016000
0
VERTEX
8
0
10
1.400000
20
0.700000
0
VERTEX
8
0
10
1.500000
20
0.700000
0
VERTEX
8
0
10
1.450000
20
0.800000
0
VERTEX
8
0
10
1.400000
20
0.700000
0
SEQEND
8
0
0
POLYLINE
8
0
66
1
40
0.016000
41
0.016000
0
VERTEX
8
0
10
1.400000
20
0.800000
0
VERTEX
8
0
10
1.500000
20
0.800000
0
SEQEND
8
0
0
POLYLINE
8
0
66
1
40
0.016000
41
0.016000
0
VERTEX
8
0
10
1.450000
20
0.900000
0
VERTEX
8
0
10
1.450000
20
0.800000
0
SEQEND
8
0
0
POLYLINE
8
0
66
1
40
0.016000
41
0.016000
0
VERTEX
8
0
10
1.450000
20
0.600000
0
VERTEX
8
0
10
1.450000
20
0.700000
0
SEQEND
8
0
0
TEXT
8
0
10
1.558000
20
0.673000
40
0.120000
41
0.666667
1
D2
0
TEXT
8
0
10
1.558000
20
0.568000
40
0.080000
41
1.000000
1
photo diode
0
POLYLINE
8
0
66
1
40
0.016000
41
0.016000
0
VERTEX
8
0
10
2.010000
20
1.100000
0
VERTEX
8
0
10
2.090000
20
1.100000
0
VERTEX
8
0
10
2.090000
20
1.400000
0
VERTEX
8
0
10
2.010000
20
1.400000
0
VERTEX
8
0
10
2.010000
20
1.100000
0
SEQEND
8
0
0
POLYLINE
8
0
66
1
40
0.016000
41
0.016000
0
VERTEX
8
0
10
2.050000
20
1.500000
0
VERTEX
8
0
10
2.050000
20
1.400000
0
SEQEND
8
0
0
POLYLINE
8
0
66
1
40
0.016000
41
0.016000
0
VERTEX
8
0
10
2.050000
20
1.000000
0
VERTEX
8
0
10
2.050000
20
1.100000
0
SEQEND
8
0
0
TEXT
8
0
10
2.148000
20
1.273000
40
0.120000
41
0.666667
1
R1
0
TEXT
8
0
10
2.148000
20
1.168000
40
0.080000
41
1.000000
1
330R
0
POLYLINE
8
0
66
1
40
0.016000
41
0.016000
0
VERTEX
8
0
10
1.410000
20
1.100000
0
VERTEX
8
0
10
1.490000
20
1.100000
0
VERTEX
8
0
10
1.490000
20
1.400000
0
VERTEX
8
0
10
1.410000
20
1.400000
0
VERTEX
8
0
10
1.410000
20
1.100000
0
SEQEND
8
0
0
POLYLINE
8
0
66
1
40
0.016000
41
0.016000
0
VERTEX
8
0
10
1.450000
20
1.500000
0
VERTEX
8
0
10
1.450000
20
1.400000
0
SEQEND
8
0
0
POLYLINE
8
0
66
1
40
0.016000
41
0.016000
0
VERTEX
8
0
10
1.450000
20
1.000000
0
VERTEX
8
0
10
1.450000
20
1.100000
0
SEQEND
8
0
0
TEXT
8
0
10
1.548000
20
1.273000
40
0.120000
41
0.666667
1
R2
0
TEXT
8
0
10
1.548000
20
1.168000
40
0.080000
41
1.000000
1
10k
0
POLYLINE
8
0
66
1
40
0.016000
41
0.016000
0
VERTEX
8
0
10
1.700000
20
1.650000
0
VERTEX
8
0
10
1.750000
20
1.750000
0
VERTEX
8
0
10
1.800000
20
1.650000
0
VERTEX
8
0
10
1.700000
20
1.650000
0
SEQEND
8
0
0
POLYLINE
8
0
66
1
40
0.016000
41
0.016000
0
VERTEX
8
0
10
1.750000
20
1.550000
0
VERTEX
8
0
10
1.750000
20
1.750000
0
SEQEND
8
0
0
TEXT
8
0
10
1.550000
20
1.710000
40
0.080000
41
1.000000
1
3.3V
0
CIRCLE
8
16384
10
1.750000
20
1.550000
40
0.020000
0
POLYLINE
8
0
66
1
40
0.016000
41
0.016000
0
VERTEX
8
0
10
1.750000
20
0.450000
0
VERTEX
8
0
10
1.750000
20
0.350000
0
SEQEND
8
0
0
POLYLINE
8
0
66
1
40
0.016000
41
0.016000
0
VERTEX
8
0
10
1.650000
20
0.350000
0
VERTEX
8
0
10
1.850000
20
0.350000
0
SEQEND
8
0
0
POLYLINE
8
0
66
1
40
0.016000
41
0.016000
0
VERTEX
8
0
10
1.700000
20
0.300000
0
VERTEX
8
0
10
1.800000
20
0.300000
0
SEQEND
8
0
0
POLYLINE
8
0
66
1
40
0.016000
41
0.016000
0
VERTEX
8
0
10
1.740000
20
0.250000
0
VERTEX
8
0
10
1.760000
20
0.250000
0
SEQEND
8
0
0
CIRCLE
8
16384
10
1.750000
20
0.500000
40
0.020000
0
POLYLINE
8
0
66
1
40
0.016000
41
0.016000
0
VERTEX
8
0
10
2.150000
20
-0.800000
0
VERTEX
8
0
10
1.950000
20
-0.800000
0
VERTEX
8
0
10
2.050000
20
-0.900000
0
VERTEX
8
0
10
2.150000
20
-0.800000
0
SEQEND
8
0
0
POLYLINE
8
0
66
1
40
0.016000
41
0.016000
0
VERTEX
8
0
10
2.150000
20
-0.900000
0
VERTEX
8
0
10
1.950000
20
-0.900000
0
SEQEND
8
0
0
POLYLINE
8
0
66
1
40
0.016000
41
0.016000
0
VERTEX
8
0
10
2.150000
20
-0.850000
0
VERTEX
8
0
10
2.250000
20
-0.950000
0
SEQEND
8
0
0
POLYLINE
8
0
66
1
40
0.016000
41
0.016000
0
VERTEX
8
0
10
2.200000
20
-0.850000
0
VERTEX
8
0
10
2.300000
20
-0.950000
0
SEQEND
8
0
0
POLYLINE
8
0
66
1
40
0.016000
41
0.016000
0
VERTEX
8
0
10
2.300000
20
-0.900000
0
VERTEX
8
0
10
2.300000
20
-0.950000
0
VERTEX
8
0
10
2.250000
20
-0.950000
0
SEQEND
8
0
0
POLYLINE
8
0
66
1
40
0.016000
41
0.016000
0
VERTEX
8
0
10
2.250000
20
-0.900000
0
VERTEX
8
0
10
2.250000
20
-0.950000
0
VERTEX
8
0
10
2.200000
20
-0.950000
0
SEQEND
8
0
0
POLYLINE
8
0
66
1
40
0.016000
41
0.016000
0
VERTEX
8
0
10
2.050000
20
-0.700000
0
VERTEX
8
0
10
2.050000
20
-0.800000
0
SEQEND
8
0
0
POLYLINE
8
0
66
1
40
0.016000
41
0.016000
0
VERTEX
8
0
10
2.050000
20
-1.000000
0
VERTEX
8
0
10
2.050000
20
-0.900000
0
SEQEND
8
0
0
TEXT
8
0
10
2.358000
20
-0.927000
40
0.120000
41
0.666667
1
D1
0
TEXT
8
0
10
2.358000
20
-1.032000
40
0.080000
41
1.000000
1
IR LED
0
POLYLINE
8
0
66
1
40
0.016000
41
0.016000
0
VERTEX
8
0
10
1.400000
20
-0.900000
0
VERTEX
8
0
10
1.500000
20
-0.900000
0
VERTEX
8
0
10
1.450000
20
-0.800000
0
VERTEX
8
0
10
1.400000
20
-0.900000
0
SEQEND
8
0
0
POLYLINE
8
0
66
1
40
0.016000
41
0.016000
0
VERTEX
8
0
10
1.400000
20
-0.800000
0
VERTEX
8
0
10
1.500000
20
-0.800000
0
SEQEND
8
0
0
POLYLINE
8
0
66
1
40
0.016000
41
0.016000
0
VERTEX
8
0
10
1.450000
20
-0.700000
0
VERTEX
8
0
10
1.450000
20
-0.800000
0
SEQEND
8
0
0
POLYLINE
8
0
66
1
40
0.016000
41
0.016000
0
VERTEX
8
0
10
1.450000
20
-1.000000
0
VERTEX
8
0
10
1.450000
20
-0.900000
0
SEQEND
8
0
0
TEXT
8
0
10
1.558000
20
-0.927000
40
0.120000
41
0.666667
1
D2
0
TEXT
8
0
10
1.558000
20
-1.032000
40
0.080000
41
1.000000
1
photo diode
0
POLYLINE
8
0
66
1
40
0.016000
41
0.016000
0
VERTEX
8
0
10
2.010000
20
-0.500000
0
VERTEX
8
0
10
2.090000
20
-0.500000
0
VERTEX
8
0
10
2.090000
20
-0.200000
0
VERTEX
8
0
10
2.010000
20
-0.200000
0
VERTEX
8
0
10
2.010000
20
-0.500000
0
SEQEND
8
0
0
POLYLINE
8
0
66
1
40
0.016000
41
0.016000
0
VERTEX
8
0
10
2.050000
20
-0.100000
0
VERTEX
8
0
10
2.050000
20
-0.200000
0
SEQEND
8
0
0
POLYLINE
8
0
66
1
40
0.016000
41
0.016000
0
VERTEX
8
0
10
2.050000
20
-0.600000
0
VERTEX
8
0
10
2.050000
20
-0.500000
0
SEQEND
8
0
0
TEXT
8
0
10
2.148000
20
-0.327000
40
0.120000
41
0.666667
1
R1
0
TEXT
8
0
10
2.148000
20
-0.432000
40
0.080000
41
1.000000
1
330R
0
POLYLINE
8
0
66
1
40
0.016000
41
0.016000
0
VERTEX
8
0
10
1.410000
20
-0.500000
0
VERTEX
8
0
10
1.490000
20
-0.500000
0
VERTEX
8
0
10
1.490000
20
-0.200000
0
VERTEX
8
0
10
1.410000
20
-0.200000
0
VERTEX
8
0
10
1.410000
20
-0.500000
0
SEQEND
8
0
0
POLYLINE
8
0
66
1
40
0.016000
41
0.016000
0
VERTEX
8
0
10
1.450000
20
-0.100000
0
VERTEX
8
0
10
1.450000
20
-0.200000
0
SEQEND
8
0
0
POLYLINE
8
0
66
1
40
0.016000
41
0.016000
0
VERTEX
8
0
10
1.450000
20
-0.600000
0
VERTEX
8
0
10
1.450000
20
-0.500000
0
SEQEND
8
0
0
TEXT
8
0
10
1.548000
20
-0.327000
40
0.120000
41
0.666667
1
R2
0
TEXT
8
0
10
1.548000
20
-0.432000
40
0.080000
41
1.000000
1
10k
0
POLYLINE
8
0
66
1
40
0.016000
41
0.016000
0
VERTEX
8
0
10
1.700000
20
0.050000
0
VERTEX
8
0
10
1.750000
20
0.150000
0
VERTEX
8
0
10
1.800000
20
0.050000
0
VERTEX
8
0
10
1.700000
20
0.050000
0
SEQEND
8
0
0
POLYLINE
8
0
66
1
40
0.016000
41
0.016000
0
VERTEX
8
0
10
1.750000
20
-0.050000
0
VERTEX
8
0
10
1.750000
20
0.150000
0
SEQEND
8
0
0
TEXT
8
0
10
1.550000
20
0.110000
40
0.080000
41
1.000000
1
3.3V
0
CIRCLE
8
16384
10
1.750000
20
-0.050000
40
0.020000
0
POLYLINE
8
0
66
1
40
0.016000
41
0.016000
0
VERTEX
8
0
10
1.750000
20
-1.150000
0
VERTEX
8
0
10
1.750000
20
-1.250000
0
SEQEND
8
0
0
POLYLINE
8
0
66
1
40
0.016000
41
0.016000
0
VERTEX
8
0
10
1.650000
20
-1.250000
0
VERTEX
8
0
10
1.850000
20
-1.250000
0
SEQEND
8
0
0
POLYLINE
8
0
66
1
40
0.016000
41
0.016000
0
VERTEX
8
0
10
1.700000
20
-1.300000
0
VERTEX
8
0
10
1.800000
20
-1.300000
0
SEQEND
8
0
0
POLYLINE
8
0
66
1
40
0.016000
41
0.016000
0
VERTEX
8
0
10
1.740000
20
-1.350000
0
VERTEX
8
0
10
1.760000
20
-1.350000
0
SEQEND
8
0
0
CIRCLE
8
16384
10
1.750000
20
-1.100000
40
0.020000
0
POLYLINE
8
0
66
1
40
0.016000
41
0.016000
0
VERTEX
8
0
10
0.850000
20
-2.000000
0
VERTEX
8
0
10
0.650000
20
-2.000000
0
VERTEX
8
0
10
0.750000
20
-2.100000
0
VERTEX
8
0
10
0.850000
20
-2.000000
0
SEQEND
8
0
0
POLYLINE
8
0
66
1
40
0.016000
41
0.016000
0
VERTEX
8
0
10
0.850000
20
-2.100000
0
VERTEX
8
0
10
0.650000
20
-2.100000
0
SEQEND
8
0
0
POLYLINE
8
0
66
1
40
0.016000
41
0.016000
0
VERTEX
8
0
10
0.850000
20
-2.050000
0
VERTEX
8
0
10
0.950000
20
-2.150000
0
SEQEND
8
0
0
POLYLINE
8
0
66
1
40
0.016000
41
0.016000
0
VERTEX
8
0
10
0.900000
20
-2.050000
0
VERTEX
8
0
10
1.000000
20
-2.150000
0
SEQEND
8
0
0
POLYLINE
8
0
66
1
40
0.016000
41
0.016000
0
VERTEX
8
0
10
1.000000
20
-2.100000
0
VERTEX
8
0
10
1.000000
20
-2.150000
0
VERTEX
8
0
10
0.950000
20
-2.150000
0
SEQEND
8
0
0
POLYLINE
8
0
66
1
40
0.016000
41
0.016000
0
VERTEX
8
0
10
0.950000
20
-2.100000
0
VERTEX
8
0
10
0.950000
20
-2.150000
0
VERTEX
8
0
10
0.900000
20
-2.150000
0
SEQEND
8
0
0
POLYLINE
8
0
66
1
40
0.016000
41
0.016000
0
VERTEX
8
0
10
0.750000
20
-1.900000
0
VERTEX
8
0
10
0.750000
20
-2.000000
0
SEQEND
8
0
0
POLYLINE
8
0
66
1
40
0.016000
41
0.016000
0
VERTEX
8
0
10
0.750000
20
-2.200000
0
VERTEX
8
0
10
0.750000
20
-2.100000
0
SEQEND
8
0
0
TEXT
8
0
10
1.058000
20
-2.127000
40
0.120000
41
0.666667
1
D1
0
TEXT
8
0
10
1.058000
20
-2.232000
40
0.080000
41
1.000000
1
IR LED
0
POLYLINE
8
0
66
1
40
0.016000
41
0.016000
0
VERTEX
8
0
10
0.100000
20
-2.100000
0
VERTEX
8
0
10
0.200000
20
-2.100000
0
VERTEX
8
0
10
0.150000
20
-2.000000
0
VERTEX
8
0
10
0.100000
20
-2.100000
0
SEQEND
8
0
0
POLYLINE
8
0
66
1
40
0.016000
41
0.016000
0
VERTEX
8
0
10
0.100000
20
-2.000000
0
VERTEX
8
0
10
0.200000
20
-2.000000
0
SEQEND
8
0
0
POLYLINE
8
0
66
1
40
0.016000
41
0.016000
0
VERTEX
8
0
10
0.150000
20
-1.900000
0
VERTEX
8
0
10
0.150000
20
-2.000000
0
SEQEND
8
0
0
POLYLINE
8
0
66
1
40
0.016000
41
0.016000
0
VERTEX
8
0
10
0.150000
20
-2.200000
0
VERTEX
8
0
10
0.150000
20
-2.100000
0
SEQEND
8
0
0
TEXT
8
0
10
0.258000
20
-2.127000
40
0.120000
41
0.666667
1
D2
0
TEXT
8
0
10
0.258000
20
-2.232000
40
0.080000
41
1.000000
1
photo diode
0
POLYLINE
8
0
66
1
40
0.016000
41
0.016000
0
VERTEX
8
0
10
0.710000
20
-1.700000
0
VERTEX
8
0
10
0.790000
20
-1.700000
0
VERTEX
8
0
10
0.790000
20
-1.400000
0
VERTEX
8
0
10
0.710000
20
-1.400000
0
VERTEX
8
0
10
0.710000
20
-1.700000
0
SEQEND
8
0
0
POLYLINE
8
0
66
1
40
0.016000
41
0.016000
0
VERTEX
8
0
10
0.750000
20
-1.300000
0
VERTEX
8
0
10
0.750000
20
-1.400000
0
SEQEND
8
0
0
POLYLINE
8
0
66
1
40
0.016000
41
0.016000
0
VERTEX
8
0
10
0.750000
20
-1.800000
0
VERTEX
8
0
10
0.750000
20
-1.700000
0
SEQEND
8
0
0
TEXT
8
0
10
0.848000
20
-1.527000
40
0.120000
41
0.666667
1
R1
0
TEXT
8
0
10
0.848000
20
-1.632000
40
0.080000
41
1.000000
1
330R
0
POLYLINE
8
0
66
1
40
0.016000
41
0.016000
0
VERTEX
8
0
10
0.110000
20
-1.700000
0
VERTEX
8
0
10
0.190000
20
-1.700000
0
VERTEX
8
0
10
0.190000
20
-1.400000
0
VERTEX
8
0
10
0.110000
20
-1.400000
0
VERTEX
8
0
10
0.110000
20
-1.700000
0
SEQEND
8
0
0
POLYLINE
8
0
66
1
40
0.016000
41
0.016000
0
VERTEX
8
0
10
0.150000
20
-1.300000
0
VERTEX
8
0
10
0.150000
20
-1.400000
0
SEQEND
8
0
0
POLYLINE
8
0
66
1
40
0.016000
41
0.016000
0
VERTEX
8
0
10
0.150000
20
-1.800000
0
VERTEX
8
0
10
0.150000
20
-1.700000
0
SEQEND
8
0
0
TEXT
8
0
10
0.248000
20
-1.527000
40
0.120000
41
0.666667
1
R2
0
TEXT
8
0
10
0.248000
20
-1.632000
40
0.080000
41
1.000000
1
10k
0
POLYLINE
8
0
66
1
40
0.016000
41
0.016000
0
VERTEX
8
0
10
0.400000
20
-1.150000
0
VERTEX
8
0
10
0.450000
20
-1.050000
0
VERTEX
8
0
10
0.500000
20
-1.150000
0
VERTEX
8
0
10
0.400000
20
-1.150000
0
SEQEND
8
0
0
POLYLINE
8
0
66
1
40
0.016000
41
0.016000
0
VERTEX
8
0
10
0.450000
20
-1.250000
0
VERTEX
8
0
10
0.450000
20
-1.050000
0
SEQEND
8
0
0
TEXT
8
0
10
0.250000
20
-1.090000
40
0.080000
41
1.000000
1
3.3V
0
CIRCLE
8
16384
10
0.450000
20
-1.250000
40
0.020000
0
POLYLINE
8
0
66
1
40
0.016000
41
0.016000
0
VERTEX
8
0
10
0.450000
20
-2.350000
0
VERTEX
8
0
10
0.450000
20
-2.450000
0
SEQEND
8
0
0
POLYLINE
8
0
66
1
40
0.016000
41
0.016000
0
VERTEX
8
0
10
0.350000
20
-2.450000
0
VERTEX
8
0
10
0.550000
20
-2.450000
0
SEQEND
8
0
0
POLYLINE
8
0
66
1
40
0.016000
41
0.016000
0
VERTEX
8
0
10
0.400000
20
-2.500000
0
VERTEX
8
0
10
0.500000
20
-2.500000
0
SEQEND
8
0
0
POLYLINE
8
0
66
1
40
0.016000
41
0.016000
0
VERTEX
8
0
10
0.440000
20
-2.550000
0
VERTEX
8
0
10
0.460000
20
-2.550000
0
SEQEND
8
0
0
CIRCLE
8
16384
10
0.450000
20
-2.300000
40
0.020000
0
CIRCLE
8
16384
10
-2.200000
20
2.000000
40
0.020000
0
CIRCLE
8
16384
10
-2.200000
20
1.500000
40
0.020000
0
CIRCLE
8
16384
10
-2.200000
20
1.250000
40
0.020000
0
CIRCLE
8
16384
10
1.450000
20
2.500000
40
0.020000
0
CIRCLE
8
16384
10
1.450000
20
-0.650000
40
0.020000
0
CIRCLE
8
16384
10
1.450000
20
0.950000
40
0.020000
0
CIRCLE
8
16384
10
0.150000
20
-1.850000
40
0.020000
0
CIRCLE
8
16384
10
-2.200000
20
1.750000
40
0.020000
0
POLYLINE
8
0
66
1
40
0.016000
41
0.016000
0
VERTEX
8
0
10
-1.750000
20
-2.550000
0
VERTEX
8
0
10
-1.150000
20
-2.550000
0
SEQEND
8
0
0
POLYLINE
8
0
66
1
40
0.016000
41
0.016000
0
VERTEX
8
0
10
-1.150000
20
-1.000000
0
VERTEX
8
0
10
-1.150000
20
-2.550000
0
SEQEND
8
0
0
POLYLINE
8
0
66
1
40
0.016000
41
0.016000
0
VERTEX
8
0
10
-1.150000
20
-1.000000
0
VERTEX
8
0
10
-1.150000
20
-0.250000
0
VERTEX
8
0
10
-1.850000
20
-0.250000
0
VERTEX
8
0
10
-1.850000
20
0.800000
0
VERTEX
8
0
10
-2.150000
20
0.800000
0
SEQEND
8
0
0
POLYLINE
8
0
66
1
40
0.016000
41
0.016000
0
VERTEX
8
0
10
-1.750000
20
-2.800000
0
VERTEX
8
0
10
-1.300000
20
-2.800000
0
VERTEX
8
0
10
-1.300000
20
-0.400000
0
VERTEX
8
0
10
-2.000000
20
-0.400000
0
VERTEX
8
0
10
-2.000000
20
0.600000
0
VERTEX
8
0
10
-2.150000
20
0.600000
0
SEQEND
8
0
0
TEXT
8
128
10
-2.150000
20
2.090000
40
0.120000
41
0.666667
1
pin 4
0
TEXT
8
128
10
-2.150000
20
1.840000
40
0.120000
41
0.666667
1
pin 5
0
TEXT
8
128
10
-2.150000
20
1.590000
40
0.120000
41
0.666667
1
pin 6
0
TEXT
8
128
10
-2.150000
20
1.340000
40
0.120000
41
0.666667
1
pin 7
0
TEXT
8
128
10
-2.170000
20
0.840000
40
0.120000
41
0.666667
1
rx1
0
TEXT
8
128
10
-2.170000
20
0.640000
40
0.120000
41
0.666667
1
tx1
0
POLYLINE
8
0
66
1
40
0.016000
41
0.016000
0
VERTEX
8
0
10
-4.150000
20
2.200000
0
VERTEX
8
0
10
-4.550000
20
2.200000
0
SEQEND
8
0
0
POLYLINE
8
0
66
1
40
0.016000
41
0.016000
0
VERTEX
8
0
10
-4.150000
20
2.400000
0
VERTEX
8
0
10
-4.550000
20
2.400000
0
SEQEND
8
0
0
POLYLINE
8
0
66
1
40
0.016000
41
0.016000
0
VERTEX
8
0
10
-4.150000
20
2.600000
0
VERTEX
8
0
10
-4.550000
20
2.600000
0
SEQEND
8
0
0
TEXT
8
128
10
-4.470000
20
2.240000
40
0.120000
41
0.666667
1
GND
0
TEXT
8
128
10
-4.430000
20
2.440000
40
0.120000
41
0.666667
1
5V
0
TEXT
8
128
10
-4.510000
20
2.690000
40
0.120000
41
0.666667
1
3.3V
0
TEXT
8
128
10
2.970000
20
2.550000
40
0.200000
41
0.400000
1
Sensor1
0
TEXT
8
128
10
2.880000
20
1.100000
40
0.200000
41
0.400000
1
Sensor 2
0
TEXT
8
128
10
2.830000
20
-0.550000
40
0.200000
41
0.400000
1
Sensor 3
0
TEXT
8
128
10
1.480000
20
-1.800000
40
0.200000
41
0.400000
1
Sensor 4
0
TEXT
8
128
10
-3.690000
20
-0.850000
40
0.200000
41
0.400000
1
Aruino due Board
0
TEXT
8
128
10
-4.200000
20
3.120000
40
0.160000
41
0.500000
1
USB through connect to pc
0
ENDSEC
0
EOF

