  0
SECTION
  2
HEADER
  9
$ACADVER
  1
AC2.10
  0
ENDSEC
  0
SECTION
  2
TABLES
  0
TABLE
  2
LAYER
 70
     8
  0
LAYER
  2
0
 62
     7
 70
0
  6
CONTINUOUS
  0
LAYER
  2
1
 62
     1
 70
0
  6
CONTINUOUS
  0
LAYER
  2
2
 62
     2
 70
0
  6
CONTINUOUS
  0
LAYER
  2
3
 62
     3
 70
0
  6
CONTINUOUS
  0
LAYER
  2
4
 62
     4
 70
0
  6
CONTINUOUS
  0
LAYER
  2
5
 62
     5
 70
0
  6
CONTINUOUS
  0
LAYER
  2
6
 62
     6
 70
0
  6
CONTINUOUS
  0
LAYER
  2
7
 62
     7
 70
0
  6
CONTINUOUS
  0
ENDTAB
  0
TABLE
  2
STYLE
 70
     1
  0
STYLE
 70
     0
  2
STANDARD
  3
TXT
 40
0.00
 41
1.00
 42
1.00
 50
0.00
 71
     0
  0
ENDTAB
  0
ENDSEC
  0
SECTION
  2
BLOCKS
  0
BLOCK
  8
0
  2
EPAD
 70
0
 10
0.0
 20
0.0
  0
POLYLINE
  8
0
 66
1
 70
1
 40
0.5
 41
0.5
  0
VERTEX
  8
0
 10
-0.25
 20
0.0
 42
1.0
  0
VERTEX
  8
0
 10
0.25
 20
0.0
 42
1.0
  0
SEQEND
  8
0
  0
ENDBLK
  8
0
  0
BLOCK
  8
0
  2
RPAD
 70
0
 10
0.0
 20
0.0
  0
TRACE
  8
0
 10
-0.5
 20
-0.5
 11
-0.5
 21
0.5
 12
0.5
 22
-0.5
 13
0.5
 23
0.5
  0
ENDBLK
  8
0
  0
ENDSEC
0
SECTION
2
ENTITIES
0
POLYLINE
8
0
66
1
40
0.020000
41
0.020000
0
VERTEX
8
0
10
-4.990000
20
-3.490000
0
VERTEX
8
0
10
4.990000
20
-3.490000
0
VERTEX
8
0
10
4.990000
20
3.490000
0
VERTEX
8
0
10
-4.990000
20
3.490000
0
VERTEX
8
0
10
-4.990000
20
-3.490000
0
SEQEND
8
0
0
POLYLINE
8
0
66
1
40
0.020000
41
0.020000
0
VERTEX
8
0
10
-4.900000
20
-3.400000
0
VERTEX
8
0
10
4.900000
20
-3.400000
0
VERTEX
8
0
10
4.900000
20
3.400000
0
VERTEX
8
0
10
-4.900000
20
3.400000
0
VERTEX
8
0
10
-4.900000
20
-3.400000
0
SEQEND
8
0
0
POLYLINE
8
0
66
1
40
0.018000
41
0.018000
0
VERTEX
8
0
10
-4.900000
20
3.490000
0
VERTEX
8
0
10
-4.900000
20
3.400000
0
SEQEND
8
0
0
POLYLINE
8
0
66
1
40
0.018000
41
0.018000
0
VERTEX
8
0
10
-3.920000
20
3.490000
0
VERTEX
8
0
10
-3.920000
20
3.400000
0
SEQEND
8
0
0
POLYLINE
8
0
66
1
40
0.018000
41
0.018000
0
VERTEX
8
0
10
-4.900000
20
3.400000
0
VERTEX
8
0
10
-4.990000
20
3.400000
0
SEQEND
8
0
0
POLYLINE
8
0
66
1
40
0.018000
41
0.018000
0
VERTEX
8
0
10
1.400000
20
-3.400000
0
VERTEX
8
0
10
4.900000
20
-3.400000
0
VERTEX
8
0
10
4.900000
20
-2.570000
0
VERTEX
8
0
10
1.400000
20
-2.570000
0
VERTEX
8
0
10
1.400000
20
-3.400000
0
SEQEND
8
0
0
TEXT
8
8388608
10
1.450000
20
-2.710000
40
0.080000
41
1.000000
1
FILE NAME:
0
TEXT
8
8388608
10
1.450000
20
-3.330000
40
0.080000
41
1.000000
1
BY:
0
TEXT
8
8388608
10
3.980000
20
-2.690000
40
0.080000
41
1.000000
1
DATE:
0
TEXT
8
8388608
10
3.990000
20
-3.060000
40
0.080000
41
1.000000
1
PAGE:
0
TEXT
8
8388608
10
2.070000
20
-2.723000
40
0.136000
41
0.588235
1
SpyRobot.DSN
0
TEXT
8
8388608
10
1.720000
20
-3.123000
40
0.140000
41
0.571429
1

0
TEXT
8
8388608
10
3.980000
20
-2.883000
40
0.136000
41
0.588235
1
2/15/2016
0
TEXT
8
8388608
10
1.670000
20
-3.330000
40
0.080000
41
1.000000
1
<NONE>
0
POLYLINE
8
0
66
1
40
0.018000
41
0.018000
0
VERTEX
8
0
10
3.920000
20
-2.570000
0
VERTEX
8
0
10
3.920000
20
-3.400000
0
SEQEND
8
0
0
POLYLINE
8
0
66
1
40
0.018000
41
0.018000
0
VERTEX
8
0
10
-2.940000
20
3.490000
0
VERTEX
8
0
10
-2.940000
20
3.400000
0
SEQEND
8
0
0
POLYLINE
8
0
66
1
40
0.018000
41
0.018000
0
VERTEX
8
0
10
-1.960000
20
3.490000
0
VERTEX
8
0
10
-1.960000
20
3.400000
0
SEQEND
8
0
0
POLYLINE
8
0
66
1
40
0.018000
41
0.018000
0
VERTEX
8
0
10
-0.980000
20
3.490000
0
VERTEX
8
0
10
-0.980000
20
3.400000
0
SEQEND
8
0
0
POLYLINE
8
0
66
1
40
0.018000
41
0.018000
0
VERTEX
8
0
10
0.000000
20
3.490000
0
VERTEX
8
0
10
0.000000
20
3.400000
0
SEQEND
8
0
0
POLYLINE
8
0
66
1
40
0.018000
41
0.018000
0
VERTEX
8
0
10
0.980000
20
3.490000
0
VERTEX
8
0
10
0.980000
20
3.400000
0
SEQEND
8
0
0
POLYLINE
8
0
66
1
40
0.018000
41
0.018000
0
VERTEX
8
0
10
1.960000
20
3.490000
0
VERTEX
8
0
10
1.960000
20
3.400000
0
SEQEND
8
0
0
POLYLINE
8
0
66
1
40
0.018000
41
0.018000
0
VERTEX
8
0
10
2.940000
20
3.490000
0
VERTEX
8
0
10
2.940000
20
3.400000
0
SEQEND
8
0
0
POLYLINE
8
0
66
1
40
0.018000
41
0.018000
0
VERTEX
8
0
10
3.920000
20
3.490000
0
VERTEX
8
0
10
3.920000
20
3.400000
0
SEQEND
8
0
0
POLYLINE
8
0
66
1
40
0.018000
41
0.018000
0
VERTEX
8
0
10
4.900000
20
3.490000
0
VERTEX
8
0
10
4.900000
20
3.400000
0
SEQEND
8
0
0
POLYLINE
8
0
66
1
40
0.018000
41
0.018000
0
VERTEX
8
0
10
-4.900000
20
-3.400000
0
VERTEX
8
0
10
-4.900000
20
-3.490000
0
SEQEND
8
0
0
POLYLINE
8
0
66
1
40
0.018000
41
0.018000
0
VERTEX
8
0
10
-3.920000
20
-3.400000
0
VERTEX
8
0
10
-3.920000
20
-3.490000
0
SEQEND
8
0
0
POLYLINE
8
0
66
1
40
0.018000
41
0.018000
0
VERTEX
8
0
10
-2.940000
20
-3.400000
0
VERTEX
8
0
10
-2.940000
20
-3.490000
0
SEQEND
8
0
0
POLYLINE
8
0
66
1
40
0.018000
41
0.018000
0
VERTEX
8
0
10
-1.960000
20
-3.400000
0
VERTEX
8
0
10
-1.960000
20
-3.490000
0
SEQEND
8
0
0
POLYLINE
8
0
66
1
40
0.018000
41
0.018000
0
VERTEX
8
0
10
-0.980000
20
-3.400000
0
VERTEX
8
0
10
-0.980000
20
-3.490000
0
SEQEND
8
0
0
POLYLINE
8
0
66
1
40
0.018000
41
0.018000
0
VERTEX
8
0
10
0.000000
20
-3.400000
0
VERTEX
8
0
10
0.000000
20
-3.490000
0
SEQEND
8
0
0
POLYLINE
8
0
66
1
40
0.018000
41
0.018000
0
VERTEX
8
0
10
0.980000
20
-3.400000
0
VERTEX
8
0
10
0.980000
20
-3.490000
0
SEQEND
8
0
0
POLYLINE
8
0
66
1
40
0.018000
41
0.018000
0
VERTEX
8
0
10
1.960000
20
-3.400000
0
VERTEX
8
0
10
1.960000
20
-3.490000
0
SEQEND
8
0
0
POLYLINE
8
0
66
1
40
0.018000
41
0.018000
0
VERTEX
8
0
10
2.940000
20
-3.400000
0
VERTEX
8
0
10
2.940000
20
-3.490000
0
SEQEND
8
0
0
POLYLINE
8
0
66
1
40
0.018000
41
0.018000
0
VERTEX
8
0
10
3.920000
20
-3.400000
0
VERTEX
8
0
10
3.920000
20
-3.490000
0
SEQEND
8
0
0
POLYLINE
8
0
66
1
40
0.018000
41
0.018000
0
VERTEX
8
0
10
4.900000
20
-3.400000
0
VERTEX
8
0
10
4.900000
20
-3.490000
0
SEQEND
8
0
0
POLYLINE
8
0
66
1
40
0.018000
41
0.018000
0
VERTEX
8
0
10
4.900000
20
-3.400000
0
VERTEX
8
0
10
4.990000
20
-3.400000
0
SEQEND
8
0
0
POLYLINE
8
0
66
1
40
0.018000
41
0.018000
0
VERTEX
8
0
10
-4.900000
20
-3.400000
0
VERTEX
8
0
10
-4.990000
20
-3.400000
0
SEQEND
8
0
0
POLYLINE
8
0
66
1
40
0.018000
41
0.018000
0
VERTEX
8
0
10
-4.900000
20
2.720000
0
VERTEX
8
0
10
-4.990000
20
2.720000
0
SEQEND
8
0
0
POLYLINE
8
0
66
1
40
0.018000
41
0.018000
0
VERTEX
8
0
10
-4.900000
20
2.040000
0
VERTEX
8
0
10
-4.990000
20
2.040000
0
SEQEND
8
0
0
POLYLINE
8
0
66
1
40
0.018000
41
0.018000
0
VERTEX
8
0
10
-4.900000
20
1.360000
0
VERTEX
8
0
10
-4.990000
20
1.360000
0
SEQEND
8
0
0
POLYLINE
8
0
66
1
40
0.018000
41
0.018000
0
VERTEX
8
0
10
-4.900000
20
0.680000
0
VERTEX
8
0
10
-4.990000
20
0.680000
0
SEQEND
8
0
0
POLYLINE
8
0
66
1
40
0.018000
41
0.018000
0
VERTEX
8
0
10
-4.900000
20
0.000000
0
VERTEX
8
0
10
-4.990000
20
0.000000
0
SEQEND
8
0
0
POLYLINE
8
0
66
1
40
0.018000
41
0.018000
0
VERTEX
8
0
10
-4.900000
20
-0.680000
0
VERTEX
8
0
10
-4.990000
20
-0.680000
0
SEQEND
8
0
0
POLYLINE
8
0
66
1
40
0.018000
41
0.018000
0
VERTEX
8
0
10
-4.900000
20
-1.360000
0
VERTEX
8
0
10
-4.990000
20
-1.360000
0
SEQEND
8
0
0
POLYLINE
8
0
66
1
40
0.018000
41
0.018000
0
VERTEX
8
0
10
-4.900000
20
-2.040000
0
VERTEX
8
0
10
-4.990000
20
-2.040000
0
SEQEND
8
0
0
POLYLINE
8
0
66
1
40
0.018000
41
0.018000
0
VERTEX
8
0
10
-4.900000
20
-2.720000
0
VERTEX
8
0
10
-4.990000
20
-2.720000
0
SEQEND
8
0
0
POLYLINE
8
0
66
1
40
0.018000
41
0.018000
0
VERTEX
8
0
10
4.990000
20
3.400000
0
VERTEX
8
0
10
4.900000
20
3.400000
0
SEQEND
8
0
0
POLYLINE
8
0
66
1
40
0.018000
41
0.018000
0
VERTEX
8
0
10
4.990000
20
2.720000
0
VERTEX
8
0
10
4.900000
20
2.720000
0
SEQEND
8
0
0
POLYLINE
8
0
66
1
40
0.018000
41
0.018000
0
VERTEX
8
0
10
4.990000
20
2.040000
0
VERTEX
8
0
10
4.900000
20
2.040000
0
SEQEND
8
0
0
POLYLINE
8
0
66
1
40
0.018000
41
0.018000
0
VERTEX
8
0
10
4.990000
20
1.360000
0
VERTEX
8
0
10
4.900000
20
1.360000
0
SEQEND
8
0
0
POLYLINE
8
0
66
1
40
0.018000
41
0.018000
0
VERTEX
8
0
10
4.990000
20
0.680000
0
VERTEX
8
0
10
4.900000
20
0.680000
0
SEQEND
8
0
0
POLYLINE
8
0
66
1
40
0.018000
41
0.018000
0
VERTEX
8
0
10
4.990000
20
0.000000
0
VERTEX
8
0
10
4.900000
20
0.000000
0
SEQEND
8
0
0
POLYLINE
8
0
66
1
40
0.018000
41
0.018000
0
VERTEX
8
0
10
4.990000
20
-0.680000
0
VERTEX
8
0
10
4.900000
20
-0.680000
0
SEQEND
8
0
0
POLYLINE
8
0
66
1
40
0.018000
41
0.018000
0
VERTEX
8
0
10
4.990000
20
-1.360000
0
VERTEX
8
0
10
4.900000
20
-1.360000
0
SEQEND
8
0
0
POLYLINE
8
0
66
1
40
0.018000
41
0.018000
0
VERTEX
8
0
10
4.990000
20
-2.040000
0
VERTEX
8
0
10
4.900000
20
-2.040000
0
SEQEND
8
0
0
POLYLINE
8
0
66
1
40
0.018000
41
0.018000
0
VERTEX
8
0
10
4.990000
20
-2.720000
0
VERTEX
8
0
10
4.900000
20
-2.720000
0
SEQEND
8
0
0
TEXT
8
8388608
10
-4.450000
20
3.410000
40
0.080000
41
1.000000
1
A
0
TEXT
8
8388608
10
-3.470000
20
3.400000
40
0.080000
41
1.000000
1
B
0
TEXT
8
8388608
10
-2.490000
20
3.400000
40
0.080000
41
1.000000
1
C
0
TEXT
8
8388608
10
-1.510000
20
3.400000
40
0.080000
41
1.000000
1
D
0
TEXT
8
8388608
10
-0.530000
20
3.400000
40
0.080000
41
1.000000
1
E
0
TEXT
8
8388608
10
0.450000
20
3.400000
40
0.080000
41
1.000000
1
F
0
TEXT
8
8388608
10
1.430000
20
3.400000
40
0.080000
41
1.000000
1
G
0
TEXT
8
8388608
10
2.410000
20
3.400000
40
0.080000
41
1.000000
1
H
0
TEXT
8
8388608
10
3.390000
20
3.400000
40
0.080000
41
1.000000
1
J
0
TEXT
8
8388608
10
4.370000
20
3.400000
40
0.080000
41
1.000000
1
K
0
POLYLINE
8
0
66
1
40
0.018000
41
0.018000
0
VERTEX
8
0
10
-3.920000
20
-3.400000
0
VERTEX
8
0
10
-3.920000
20
-3.490000
0
SEQEND
8
0
0
TEXT
8
8388608
10
-4.450000
20
-3.490000
40
0.080000
41
1.000000
1
A
0
TEXT
8
8388608
10
-3.470000
20
-3.490000
40
0.080000
41
1.000000
1
B
0
TEXT
8
8388608
10
-2.490000
20
-3.490000
40
0.080000
41
1.000000
1
C
0
TEXT
8
8388608
10
-1.510000
20
-3.490000
40
0.080000
41
1.000000
1
D
0
TEXT
8
8388608
10
-0.530000
20
-3.490000
40
0.080000
41
1.000000
1
E
0
TEXT
8
8388608
10
0.450000
20
-3.490000
40
0.080000
41
1.000000
1
F
0
TEXT
8
8388608
10
1.430000
20
-3.490000
40
0.080000
41
1.000000
1
G
0
TEXT
8
8388608
10
2.410000
20
-3.490000
40
0.080000
41
1.000000
1
H
0
TEXT
8
8388608
10
3.390000
20
-3.490000
40
0.080000
41
1.000000
1
J
0
TEXT
8
8388608
10
4.370000
20
-3.490000
40
0.080000
41
1.000000
1
K
0
TEXT
8
8388608
10
-4.980000
20
3.012000
40
0.096000
41
0.833333
1
0
0
TEXT
8
8388608
10
-4.980000
20
2.332000
40
0.096000
41
0.833333
1
1
0
TEXT
8
8388608
10
-4.980000
20
1.652000
40
0.096000
41
0.833333
1
2
0
TEXT
8
8388608
10
-4.990000
20
0.972000
40
0.096000
41
0.833333
1
3
0
TEXT
8
8388608
10
-4.990000
20
0.292000
40
0.096000
41
0.833333
1
4
0
TEXT
8
8388608
10
-4.990000
20
-0.388000
40
0.096000
41
0.833333
1
5
0
TEXT
8
8388608
10
-4.990000
20
-1.068000
40
0.096000
41
0.833333
1
6
0
TEXT
8
8388608
10
-4.990000
20
-1.748000
40
0.096000
41
0.833333
1
7
0
TEXT
8
8388608
10
-4.990000
20
-2.428000
40
0.096000
41
0.833333
1
8
0
TEXT
8
8388608
10
-4.990000
20
-3.108000
40
0.096000
41
0.833333
1
9
0
TEXT
8
8388608
10
4.910000
20
3.012000
40
0.096000
41
0.833333
1
0
0
TEXT
8
8388608
10
4.910000
20
2.332000
40
0.096000
41
0.833333
1
1
0
TEXT
8
8388608
10
4.910000
20
1.652000
40
0.096000
41
0.833333
1
2
0
TEXT
8
8388608
10
4.910000
20
0.972000
40
0.096000
41
0.833333
1
3
0
TEXT
8
8388608
10
4.910000
20
0.292000
40
0.096000
41
0.833333
1
4
0
TEXT
8
8388608
10
4.910000
20
-0.388000
40
0.096000
41
0.833333
1
5
0
TEXT
8
8388608
10
4.910000
20
-1.068000
40
0.096000
41
0.833333
1
6
0
TEXT
8
8388608
10
4.910000
20
-1.748000
40
0.096000
41
0.833333
1
7
0
TEXT
8
8388608
10
4.910000
20
-2.428000
40
0.096000
41
0.833333
1
8
0
TEXT
8
8388608
10
4.910000
20
-3.108000
40
0.096000
41
0.833333
1
9
0
TEXT
8
8388608
10
2.070000
20
-3.148000
40
0.096000
41
0.833333
1
C:\SpyRobot.DSN
0
TEXT
8
8388608
10
1.370000
20
-3.140000
40
0.080000
41
1.000000
1
PATH:
0
TEXT
8
8388608
10
3.960000
20
-3.188000
40
0.096000
41
0.833333
1
1
0
TEXT
8
8388608
10
4.120000
20
-3.188000
40
0.096000
41
0.833333
1
of
0
TEXT
8
8388608
10
4.360000
20
-3.188000
40
0.096000
41
0.833333
1
1
0
TEXT
8
8388608
10
3.190000
20
-3.340000
40
0.080000
41
1.000000
1
REV:
0
TEXT
8
8388608
10
3.360000
20
-3.348000
40
0.096000
41
0.833333
1
<NONE>
0
TEXT
8
8388608
10
3.900000
20
-3.340000
40
0.080000
41
1.000000
1
TIME:
0
TEXT
8
8388608
10
4.060000
20
-3.340000
40
0.080000
41
1.000000
1
11:16:42 PM
0
TEXT
8
8388608
10
1.220000
20
-2.930000
40
0.080000
41
1.000000
1
DESIGN TITLE:
0
TEXT
8
8388608
10
2.070000
20
-2.958000
40
0.136000
41
0.588235
1
C:\SpyRobot.DSN
0
POLYLINE
8
0
66
1
40
0.016000
41
0.016000
0
VERTEX
8
0
10
2.050000
20
2.550000
0
VERTEX
8
0
10
2.100000
20
2.550000
0
VERTEX
8
0
10
2.100000
20
2.500000
0
VERTEX
8
0
10
2.900000
20
2.500000
0
VERTEX
8
0
10
2.900000
20
2.650000
0
VERTEX
8
0
10
3.000000
20
2.650000
0
SEQEND
8
0
0
POLYLINE
8
0
66
1
40
0.016000
41
0.016000
0
VERTEX
8
0
10
2.050000
20
2.650000
0
VERTEX
8
0
10
2.800000
20
2.650000
0
VERTEX
8
0
10
2.800000
20
2.900000
0
VERTEX
8
0
10
3.700000
20
2.900000
0
VERTEX
8
0
10
3.700000
20
2.650000
0
VERTEX
8
0
10
3.600000
20
2.650000
0
SEQEND
8
0
0
POLYLINE
8
0
66
1
40
0.016000
41
0.016000
0
VERTEX
8
0
10
2.050000
20
2.050000
0
VERTEX
8
0
10
3.000000
20
2.050000
0
VERTEX
8
0
10
3.000000
20
2.000000
0
SEQEND
8
0
0
POLYLINE
8
0
66
1
40
0.016000
41
0.016000
0
VERTEX
8
0
10
2.050000
20
1.950000
0
VERTEX
8
0
10
2.700000
20
1.950000
0
VERTEX
8
0
10
2.700000
20
1.550000
0
VERTEX
8
0
10
3.700000
20
1.550000
0
VERTEX
8
0
10
3.700000
20
2.000000
0
VERTEX
8
0
10
3.600000
20
2.000000
0
SEQEND
8
0
0
POLYLINE
8
0
66
1
40
0.016000
41
0.016000
0
VERTEX
8
0
10
3.000000
20
-0.900000
0
VERTEX
8
0
10
3.200000
20
-0.900000
0
VERTEX
8
0
10
3.200000
20
-1.150000
0
SEQEND
8
0
0
POLYLINE
8
0
66
1
40
0.016000
41
0.016000
0
VERTEX
8
0
10
1.900000
20
-0.900000
0
VERTEX
8
0
10
2.250000
20
-0.900000
0
SEQEND
8
0
0
POLYLINE
8
0
66
1
40
0.016000
41
0.016000
0
VERTEX
8
0
10
2.500000
20
-0.900000
0
VERTEX
8
0
10
2.250000
20
-0.900000
0
SEQEND
8
0
0
POLYLINE
8
0
66
1
40
0.016000
41
0.016000
0
VERTEX
8
0
10
2.250000
20
-0.650000
0
VERTEX
8
0
10
2.250000
20
-0.900000
0
SEQEND
8
0
0
POLYLINE
8
0
66
1
40
0.016000
41
0.016000
0
VERTEX
8
0
10
1.300000
20
-1.400000
0
VERTEX
8
0
10
1.300000
20
-1.800000
0
SEQEND
8
0
0
POLYLINE
8
0
66
1
40
0.016000
41
0.016000
0
VERTEX
8
0
10
-0.600000
20
-2.400000
0
VERTEX
8
0
10
-0.900000
20
-2.400000
0
VERTEX
8
0
10
-0.900000
20
-2.550000
0
SEQEND
8
0
0
POLYLINE
8
0
66
1
40
0.016000
41
0.016000
0
VERTEX
8
0
10
-0.900000
20
-2.950000
0
VERTEX
8
0
10
-0.900000
20
-3.000000
0
VERTEX
8
0
10
0.000000
20
-3.000000
0
SEQEND
8
0
0
POLYLINE
8
0
66
1
40
0.016000
41
0.016000
0
VERTEX
8
0
10
0.000000
20
-2.900000
0
VERTEX
8
0
10
0.000000
20
-3.000000
0
SEQEND
8
0
0
POLYLINE
8
0
66
1
40
0.016000
41
0.016000
0
VERTEX
8
0
10
1.000000
20
-2.900000
0
VERTEX
8
0
10
1.000000
20
-3.000000
0
VERTEX
8
0
10
0.000000
20
-3.000000
0
SEQEND
8
0
0
POLYLINE
8
0
66
1
40
0.016000
41
0.016000
0
VERTEX
8
0
10
0.000000
20
-3.100000
0
VERTEX
8
0
10
0.000000
20
-3.000000
0
SEQEND
8
0
0
POLYLINE
8
0
66
1
40
0.016000
41
0.016000
0
VERTEX
8
0
10
0.600000
20
-2.400000
0
VERTEX
8
0
10
1.000000
20
-2.400000
0
SEQEND
8
0
0
POLYLINE
8
0
66
1
40
0.016000
41
0.016000
0
VERTEX
8
0
10
1.000000
20
-2.500000
0
VERTEX
8
0
10
1.000000
20
-2.400000
0
SEQEND
8
0
0
POLYLINE
8
0
66
1
40
0.016000
41
0.016000
0
VERTEX
8
0
10
1.000000
20
-2.200000
0
VERTEX
8
0
10
1.000000
20
-2.400000
0
SEQEND
8
0
0
POLYLINE
8
0
66
1
40
0.016000
41
0.016000
0
VERTEX
8
0
10
-0.150000
20
-0.900000
0
VERTEX
8
0
10
-0.250000
20
-0.900000
0
SEQEND
8
0
0
POLYLINE
8
0
66
1
40
0.016000
41
0.016000
0
VERTEX
8
0
10
-0.500000
20
-1.000000
0
VERTEX
8
0
10
-0.500000
20
-0.900000
0
VERTEX
8
0
10
-0.250000
20
-0.900000
0
SEQEND
8
0
0
POLYLINE
8
0
66
1
40
0.016000
41
0.016000
0
VERTEX
8
0
10
-0.250000
20
-0.850000
0
VERTEX
8
0
10
-0.250000
20
-0.900000
0
SEQEND
8
0
0
POLYLINE
8
0
66
1
40
0.016000
41
0.016000
0
VERTEX
8
0
10
0.350000
20
-0.900000
0
VERTEX
8
0
10
0.550000
20
-0.900000
0
SEQEND
8
0
0
POLYLINE
8
0
66
1
40
0.016000
41
0.016000
0
VERTEX
8
0
10
0.700000
20
-0.900000
0
VERTEX
8
0
10
0.550000
20
-0.900000
0
SEQEND
8
0
0
POLYLINE
8
0
66
1
40
0.016000
41
0.016000
0
VERTEX
8
0
10
0.550000
20
-1.150000
0
VERTEX
8
0
10
0.550000
20
-0.900000
0
SEQEND
8
0
0
POLYLINE
8
0
66
1
40
0.016000
41
0.016000
0
VERTEX
8
0
10
-0.500000
20
-1.700000
0
VERTEX
8
0
10
-0.500000
20
-1.800000
0
VERTEX
8
0
10
0.550000
20
-1.800000
0
SEQEND
8
0
0
POLYLINE
8
0
66
1
40
0.016000
41
0.016000
0
VERTEX
8
0
10
1.300000
20
-1.800000
0
VERTEX
8
0
10
0.550000
20
-1.800000
0
SEQEND
8
0
0
POLYLINE
8
0
66
1
40
0.016000
41
0.016000
0
VERTEX
8
0
10
0.550000
20
-1.550000
0
VERTEX
8
0
10
0.550000
20
-1.800000
0
SEQEND
8
0
0
POLYLINE
8
0
66
1
40
0.016000
41
0.016000
0
VERTEX
8
0
10
2.250000
20
-0.900000
0
VERTEX
8
0
10
2.250000
20
-1.150000
0
SEQEND
8
0
0
POLYLINE
8
0
66
1
40
0.016000
41
0.016000
0
VERTEX
8
0
10
1.300000
20
-1.800000
0
VERTEX
8
0
10
2.250000
20
-1.800000
0
SEQEND
8
0
0
POLYLINE
8
0
66
1
40
0.016000
41
0.016000
0
VERTEX
8
0
10
3.200000
20
-1.450000
0
VERTEX
8
0
10
3.200000
20
-1.800000
0
VERTEX
8
0
10
2.250000
20
-1.800000
0
SEQEND
8
0
0
POLYLINE
8
0
66
1
40
0.016000
41
0.016000
0
VERTEX
8
0
10
2.250000
20
-1.550000
0
VERTEX
8
0
10
2.250000
20
-1.800000
0
SEQEND
8
0
0
POLYLINE
8
0
66
1
40
0.016000
41
0.016000
0
VERTEX
8
0
10
1.150000
20
1.650000
0
VERTEX
8
0
10
1.150000
20
1.600000
0
VERTEX
8
0
10
1.300000
20
1.600000
0
SEQEND
8
0
0
POLYLINE
8
0
66
1
40
0.016000
41
0.016000
0
VERTEX
8
0
10
1.450000
20
1.650000
0
VERTEX
8
0
10
1.450000
20
1.600000
0
VERTEX
8
0
10
1.300000
20
1.600000
0
SEQEND
8
0
0
POLYLINE
8
0
66
1
40
0.016000
41
0.016000
0
VERTEX
8
0
10
1.300000
20
1.550000
0
VERTEX
8
0
10
1.300000
20
1.600000
0
SEQEND
8
0
0
POLYLINE
8
0
66
1
40
0.016000
41
0.016000
0
VERTEX
8
0
10
1.200000
20
-0.200000
0
VERTEX
8
0
10
1.200000
20
-0.300000
0
VERTEX
8
0
10
1.350000
20
-0.300000
0
SEQEND
8
0
0
POLYLINE
8
0
66
1
40
0.016000
41
0.016000
0
VERTEX
8
0
10
1.500000
20
-0.200000
0
VERTEX
8
0
10
1.500000
20
-0.300000
0
VERTEX
8
0
10
1.350000
20
-0.300000
0
SEQEND
8
0
0
POLYLINE
8
0
66
1
40
0.016000
41
0.016000
0
VERTEX
8
0
10
1.350000
20
-0.350000
0
VERTEX
8
0
10
1.350000
20
-0.300000
0
SEQEND
8
0
0
POLYLINE
8
0
66
1
40
0.016000
41
0.016000
0
VERTEX
8
0
10
0.550000
20
2.450000
0
VERTEX
8
0
10
0.350000
20
2.450000
0
VERTEX
8
0
10
0.350000
20
2.200000
0
SEQEND
8
0
0
POLYLINE
8
0
66
1
40
0.016000
41
0.016000
0
VERTEX
8
0
10
0.550000
20
1.950000
0
VERTEX
8
0
10
0.350000
20
1.950000
0
VERTEX
8
0
10
0.350000
20
2.200000
0
SEQEND
8
0
0
POLYLINE
8
0
66
1
40
0.016000
41
0.016000
0
VERTEX
8
0
10
0.150000
20
2.250000
0
VERTEX
8
0
10
0.150000
20
2.200000
0
VERTEX
8
0
10
0.350000
20
2.200000
0
SEQEND
8
0
0
POLYLINE
8
0
66
1
40
0.016000
41
0.016000
0
VERTEX
8
0
10
0.550000
20
2.650000
0
VERTEX
8
0
10
-0.650000
20
2.650000
0
SEQEND
8
0
0
POLYLINE
8
0
66
1
40
0.016000
41
0.016000
0
VERTEX
8
0
10
0.550000
20
2.550000
0
VERTEX
8
0
10
-0.400000
20
2.550000
0
VERTEX
8
0
10
-0.400000
20
2.300000
0
VERTEX
8
0
10
-0.650000
20
2.300000
0
SEQEND
8
0
0
POLYLINE
8
0
66
1
40
0.016000
41
0.016000
0
VERTEX
8
0
10
0.550000
20
2.150000
0
VERTEX
8
0
10
-0.350000
20
2.150000
0
VERTEX
8
0
10
-0.350000
20
2.000000
0
VERTEX
8
0
10
-0.650000
20
2.000000
0
SEQEND
8
0
0
POLYLINE
8
0
66
1
40
0.016000
41
0.016000
0
VERTEX
8
0
10
0.550000
20
2.050000
0
VERTEX
8
0
10
-0.200000
20
2.050000
0
VERTEX
8
0
10
-0.200000
20
1.800000
0
VERTEX
8
0
10
-0.650000
20
1.800000
0
SEQEND
8
0
0
POLYLINE
8
0
66
1
40
0.016000
41
0.016000
0
VERTEX
8
0
10
2.100000
20
0.800000
0
VERTEX
8
0
10
2.200000
20
0.800000
0
VERTEX
8
0
10
2.200000
20
0.900000
0
VERTEX
8
0
10
2.950000
20
0.900000
0
SEQEND
8
0
0
POLYLINE
8
0
66
1
40
0.016000
41
0.016000
0
VERTEX
8
0
10
2.100000
20
0.700000
0
VERTEX
8
0
10
2.200000
20
0.700000
0
VERTEX
8
0
10
2.200000
20
0.500000
0
VERTEX
8
0
10
3.750000
20
0.500000
0
VERTEX
8
0
10
3.750000
20
0.900000
0
VERTEX
8
0
10
3.550000
20
0.900000
0
SEQEND
8
0
0
POLYLINE
8
0
66
1
40
0.016000
41
0.016000
0
VERTEX
8
0
10
0.600000
20
0.800000
0
VERTEX
8
0
10
-0.450000
20
0.800000
0
VERTEX
8
0
10
-0.450000
20
0.750000
0
VERTEX
8
0
10
-0.600000
20
0.750000
0
SEQEND
8
0
0
POLYLINE
8
0
66
1
40
0.016000
41
0.016000
0
VERTEX
8
0
10
0.600000
20
0.700000
0
VERTEX
8
0
10
-0.300000
20
0.700000
0
VERTEX
8
0
10
-0.300000
20
0.500000
0
VERTEX
8
0
10
-0.600000
20
0.500000
0
SEQEND
8
0
0
POLYLINE
8
0
66
1
40
0.016000
41
0.016000
0
VERTEX
8
0
10
0.600000
20
0.600000
0
VERTEX
8
0
10
0.500000
20
0.600000
0
VERTEX
8
0
10
0.500000
20
0.300000
0
VERTEX
8
0
10
0.200000
20
0.300000
0
VERTEX
8
0
10
0.200000
20
0.400000
0
SEQEND
8
0
0
POLYLINE
8
0
66
1
40
0.016000
41
0.016000
0
VERTEX
8
0
10
-0.350000
20
-1.100000
0
VERTEX
8
0
10
-0.650000
20
-1.100000
0
SEQEND
8
0
0
POLYLINE
8
0
66
1
40
0.016000
41
0.016000
0
VERTEX
8
0
10
-0.450000
20
-1.150000
0
VERTEX
8
0
10
-0.550000
20
-1.150000
0
SEQEND
8
0
0
POLYLINE
8
0
66
1
40
0.016000
41
0.016000
0
VERTEX
8
0
10
-0.350000
20
-1.550000
0
VERTEX
8
0
10
-0.650000
20
-1.550000
0
SEQEND
8
0
0
POLYLINE
8
0
66
1
40
0.016000
41
0.016000
0
VERTEX
8
0
10
-0.450000
20
-1.600000
0
VERTEX
8
0
10
-0.550000
20
-1.600000
0
SEQEND
8
0
0
POLYLINE
8
0
66
1
40
0.016000
41
0.016000
0
VERTEX
8
0
10
-0.500000
20
-1.200000
0
VERTEX
8
0
10
-0.500000
20
-1.250000
0
SEQEND
8
0
0
POLYLINE
8
0
66
1
40
0.016000
41
0.016000
0
VERTEX
8
0
10
-0.500000
20
-1.300000
0
VERTEX
8
0
10
-0.500000
20
-1.350000
0
SEQEND
8
0
0
POLYLINE
8
0
66
1
40
0.016000
41
0.016000
0
VERTEX
8
0
10
-0.500000
20
-1.400000
0
VERTEX
8
0
10
-0.500000
20
-1.450000
0
SEQEND
8
0
0
POLYLINE
8
0
66
1
40
0.016000
41
0.016000
0
VERTEX
8
0
10
-0.500000
20
-1.500000
0
VERTEX
8
0
10
-0.500000
20
-1.550000
0
SEQEND
8
0
0
POLYLINE
8
0
66
1
40
0.016000
41
0.016000
0
VERTEX
8
0
10
-0.500000
20
-1.000000
0
VERTEX
8
0
10
-0.500000
20
-1.100000
0
SEQEND
8
0
0
POLYLINE
8
0
66
1
40
0.016000
41
0.016000
0
VERTEX
8
0
10
-0.500000
20
-1.700000
0
VERTEX
8
0
10
-0.500000
20
-1.600000
0
SEQEND
8
0
0
TEXT
8
0
10
-0.292000
20
-1.227000
40
0.120000
41
0.666667
1
B1
0
TEXT
8
0
10
-0.292000
20
-1.332000
40
0.080000
41
1.000000
1
12V
0
CIRCLE
8
128
10
0.220000
20
-0.900000
40
0.020000
0
CIRCLE
8
128
10
-0.020000
20
-0.900000
40
0.020000
0
POLYLINE
8
0
66
1
40
0.016000
41
0.016000
0
VERTEX
8
0
10
-0.050000
20
-0.900000
0
VERTEX
8
0
10
-0.040000
20
-0.900000
0
SEQEND
8
0
0
POLYLINE
8
0
66
1
40
0.016000
41
0.016000
0
VERTEX
8
0
10
0.240000
20
-0.900000
0
VERTEX
8
0
10
0.250000
20
-0.900000
0
SEQEND
8
0
0
POLYLINE
8
0
66
1
40
0.016000
41
0.016000
0
VERTEX
8
0
10
0.000000
20
-0.890000
0
VERTEX
8
0
10
0.190000
20
-0.770000
0
SEQEND
8
0
0
POLYLINE
8
0
66
1
40
0.016000
41
0.016000
0
VERTEX
8
0
10
-0.150000
20
-0.900000
0
VERTEX
8
0
10
-0.050000
20
-0.900000
0
SEQEND
8
0
0
POLYLINE
8
0
66
1
40
0.016000
41
0.016000
0
VERTEX
8
0
10
0.350000
20
-0.900000
0
VERTEX
8
0
10
0.250000
20
-0.900000
0
SEQEND
8
0
0
CIRCLE
8
255
10
0.250000
20
-0.800000
40
0.040000
0
POLYLINE
8
0
66
1
40
0.008000
41
0.008000
0
VERTEX
8
0
10
0.250000
20
-0.820000
0
VERTEX
8
0
10
0.240000
20
-0.810000
0
SEQEND
8
0
0
POLYLINE
8
0
66
1
40
0.008000
41
0.008000
0
VERTEX
8
0
10
0.250000
20
-0.820000
0
VERTEX
8
0
10
0.260000
20
-0.810000
0
SEQEND
8
0
0
POLYLINE
8
0
66
1
40
0.008000
41
0.008000
0
VERTEX
8
0
10
0.250000
20
-0.820000
0
VERTEX
8
0
10
0.250000
20
-0.780000
0
SEQEND
8
0
0
CIRCLE
8
255
10
0.350000
20
-0.800000
40
0.040000
0
POLYLINE
8
0
66
1
40
0.008000
41
0.008000
0
VERTEX
8
0
10
0.350000
20
-0.780000
0
VERTEX
8
0
10
0.340000
20
-0.790000
0
SEQEND
8
0
0
POLYLINE
8
0
66
1
40
0.008000
41
0.008000
0
VERTEX
8
0
10
0.350000
20
-0.780000
0
VERTEX
8
0
10
0.360000
20
-0.790000
0
SEQEND
8
0
0
POLYLINE
8
0
66
1
40
0.008000
41
0.008000
0
VERTEX
8
0
10
0.350000
20
-0.780000
0
VERTEX
8
0
10
0.350000
20
-0.820000
0
SEQEND
8
0
0
POLYLINE
8
0
66
1
40
0.016000
41
0.016000
0
VERTEX
8
0
10
0.900000
20
-1.200000
0
VERTEX
8
0
10
1.700000
20
-1.200000
0
VERTEX
8
0
10
1.700000
20
-0.800000
0
VERTEX
8
0
10
0.900000
20
-0.800000
0
VERTEX
8
0
10
0.900000
20
-1.200000
0
SEQEND
8
0
0
POLYLINE
8
0
66
1
40
0.016000
41
0.016000
0
VERTEX
8
0
10
0.700000
20
-0.900000
0
VERTEX
8
0
10
0.900000
20
-0.900000
0
SEQEND
8
0
0
TEXT
8
0
10
0.950000
20
-0.940000
40
0.080000
41
1.000000
1
VI
0
TEXT
8
0
10
0.720000
20
-0.890000
40
0.080000
41
1.000000
1
1
0
POLYLINE
8
0
66
1
40
0.016000
41
0.016000
0
VERTEX
8
0
10
1.900000
20
-0.900000
0
VERTEX
8
0
10
1.700000
20
-0.900000
0
SEQEND
8
0
0
TEXT
8
0
10
1.490000
20
-0.940000
40
0.080000
41
1.000000
1
VO
0
TEXT
8
0
10
1.800000
20
-0.890000
40
0.080000
41
1.000000
1
3
0
POLYLINE
8
0
66
1
40
0.016000
41
0.016000
0
VERTEX
8
0
10
1.300000
20
-1.400000
0
VERTEX
8
0
10
1.300000
20
-1.200000
0
SEQEND
8
0
0
TEXT
8
0
10
1.340000
20
-1.150000
40
0.080000
41
1.000000
50
90.000000
1
GND
0
TEXT
8
0
10
1.290000
20
-1.380000
40
0.080000
41
1.000000
50
90.000000
1
2
0
TEXT
8
0
10
0.892000
20
-0.577000
40
0.120000
41
0.666667
1
U1
0
TEXT
8
0
10
0.892000
20
-0.682000
40
0.080000
41
1.000000
1
7805
0
POLYLINE
8
0
66
1
40
0.016000
41
0.016000
0
VERTEX
8
0
10
0.750000
20
1.850000
0
VERTEX
8
0
10
1.850000
20
1.850000
0
VERTEX
8
0
10
1.850000
20
2.750000
0
VERTEX
8
0
10
0.750000
20
2.750000
0
VERTEX
8
0
10
0.750000
20
1.850000
0
SEQEND
8
0
0
POLYLINE
8
0
66
1
40
0.016000
41
0.016000
0
VERTEX
8
0
10
0.550000
20
2.650000
0
VERTEX
8
0
10
0.750000
20
2.650000
0
SEQEND
8
0
0
TEXT
8
0
10
0.800000
20
2.610000
40
0.080000
41
1.000000
1
IN1
0
TEXT
8
0
10
0.570000
20
2.660000
40
0.080000
41
1.000000
1
2
0
POLYLINE
8
0
66
1
40
0.016000
41
0.016000
0
VERTEX
8
0
10
2.050000
20
2.650000
0
VERTEX
8
0
10
1.850000
20
2.650000
0
SEQEND
8
0
0
TEXT
8
0
10
1.480000
20
2.610000
40
0.080000
41
1.000000
1
OUT1
0
TEXT
8
0
10
1.950000
20
2.660000
40
0.080000
41
1.000000
1
3
0
POLYLINE
8
0
66
1
40
0.016000
41
0.016000
0
VERTEX
8
0
10
2.050000
20
2.550000
0
VERTEX
8
0
10
1.850000
20
2.550000
0
SEQEND
8
0
0
TEXT
8
0
10
1.480000
20
2.510000
40
0.080000
41
1.000000
1
OUT2
0
TEXT
8
0
10
1.950000
20
2.560000
40
0.080000
41
1.000000
1
6
0
POLYLINE
8
0
66
1
40
0.016000
41
0.016000
0
VERTEX
8
0
10
2.050000
20
2.050000
0
VERTEX
8
0
10
1.850000
20
2.050000
0
SEQEND
8
0
0
TEXT
8
0
10
1.480000
20
2.010000
40
0.080000
41
1.000000
1
OUT3
0
TEXT
8
0
10
1.950000
20
2.060000
40
0.080000
41
1.000000
1
11
0
POLYLINE
8
0
66
1
40
0.016000
41
0.016000
0
VERTEX
8
0
10
2.050000
20
1.950000
0
VERTEX
8
0
10
1.850000
20
1.950000
0
SEQEND
8
0
0
TEXT
8
0
10
1.480000
20
1.910000
40
0.080000
41
1.000000
1
OUT4
0
TEXT
8
0
10
1.950000
20
1.960000
40
0.080000
41
1.000000
1
14
0
POLYLINE
8
0
66
1
40
0.016000
41
0.016000
0
VERTEX
8
0
10
0.550000
20
2.550000
0
VERTEX
8
0
10
0.750000
20
2.550000
0
SEQEND
8
0
0
TEXT
8
0
10
0.800000
20
2.510000
40
0.080000
41
1.000000
1
IN2
0
TEXT
8
0
10
0.570000
20
2.560000
40
0.080000
41
1.000000
1
7
0
POLYLINE
8
0
66
1
40
0.016000
41
0.016000
0
VERTEX
8
0
10
0.550000
20
2.050000
0
VERTEX
8
0
10
0.750000
20
2.050000
0
SEQEND
8
0
0
TEXT
8
0
10
0.800000
20
2.010000
40
0.080000
41
1.000000
1
IN3
0
TEXT
8
0
10
0.490000
20
2.060000
40
0.080000
41
1.000000
1
10
0
POLYLINE
8
0
66
1
40
0.016000
41
0.016000
0
VERTEX
8
0
10
0.550000
20
1.950000
0
VERTEX
8
0
10
0.750000
20
1.950000
0
SEQEND
8
0
0
TEXT
8
0
10
0.800000
20
1.910000
40
0.080000
41
1.000000
1
IN4
0
TEXT
8
0
10
0.490000
20
1.960000
40
0.080000
41
1.000000
1
15
0
POLYLINE
8
0
66
1
40
0.016000
41
0.016000
0
VERTEX
8
0
10
0.550000
20
2.450000
0
VERTEX
8
0
10
0.750000
20
2.450000
0
SEQEND
8
0
0
TEXT
8
0
10
0.800000
20
2.410000
40
0.080000
41
1.000000
1
EN1
0
TEXT
8
0
10
0.570000
20
2.460000
40
0.080000
41
1.000000
1
1
0
POLYLINE
8
0
66
1
40
0.016000
41
0.016000
0
VERTEX
8
0
10
0.550000
20
2.150000
0
VERTEX
8
0
10
0.750000
20
2.150000
0
SEQEND
8
0
0
TEXT
8
0
10
0.800000
20
2.110000
40
0.080000
41
1.000000
1
EN2
0
TEXT
8
0
10
0.570000
20
2.160000
40
0.080000
41
1.000000
1
9
0
POLYLINE
8
0
66
1
40
0.016000
41
0.016000
0
VERTEX
8
0
10
1.450000
20
2.950000
0
VERTEX
8
0
10
1.450000
20
2.750000
0
SEQEND
8
0
0
TEXT
8
0
10
1.370000
20
2.610000
40
0.080000
41
1.000000
1
VS
0
TEXT
8
0
10
1.475000
20
2.860000
40
0.080000
41
1.000000
1
8
0
POLYLINE
8
0
66
1
40
0.016000
41
0.016000
0
VERTEX
8
0
10
1.150000
20
2.950000
0
VERTEX
8
0
10
1.150000
20
2.750000
0
SEQEND
8
0
0
TEXT
8
0
10
1.030000
20
2.610000
40
0.080000
41
1.000000
1
VSS
0
TEXT
8
0
10
1.175000
20
2.860000
40
0.080000
41
1.000000
1
16
0
POLYLINE
8
0
66
1
40
0.016000
41
0.016000
0
VERTEX
8
0
10
1.150000
20
1.650000
0
VERTEX
8
0
10
1.150000
20
1.850000
0
SEQEND
8
0
0
TEXT
8
0
10
1.030000
20
1.910000
40
0.080000
41
1.000000
1
GND
0
POLYLINE
8
0
66
1
40
0.016000
41
0.016000
0
VERTEX
8
0
10
1.450000
20
1.650000
0
VERTEX
8
0
10
1.450000
20
1.850000
0
SEQEND
8
0
0
TEXT
8
0
10
1.330000
20
1.910000
40
0.080000
41
1.000000
1
GND
0
TEXT
8
0
10
1.858000
20
2.873000
40
0.120000
41
0.666667
1
U2
0
TEXT
8
0
10
1.858000
20
1.652000
40
0.080000
41
1.000000
1
L293D
0
POLYLINE
8
0
66
1
40
0.008000
41
0.008000
0
VERTEX
8
0
10
3.160000
20
2.330000
0
VERTEX
8
0
10
3.440000
20
2.330000
0
VERTEX
8
0
10
3.440000
20
2.430000
0
VERTEX
8
0
10
3.160000
20
2.430000
0
VERTEX
8
0
10
3.160000
20
2.330000
0
SEQEND
8
0
0
TEXT
8
32768
10
3.100000
20
2.340000
40
0.080000
41
1.000000
1
+88.8
0
CIRCLE
8
128
10
3.300000
20
2.650000
40
0.200000
0
POLYLINE
8
0
66
1
40
0.000000
41
0.000000
0
VERTEX
8
0
10
3.406000
20
2.543000
0
VERTEX
8
0
10
3.382000
20
2.524000
0
VERTEX
8
0
10
3.356000
20
2.510000
0
VERTEX
8
0
10
3.328000
20
2.502000
0
VERTEX
8
0
10
3.300000
20
2.499000
0
VERTEX
8
0
10
3.271000
20
2.502000
0
VERTEX
8
0
10
3.243000
20
2.510000
0
VERTEX
8
0
10
3.217000
20
2.524000
0
VERTEX
8
0
10
3.193000
20
2.543000
0
VERTEX
8
0
10
3.229000
20
2.579000
0
VERTEX
8
0
10
3.245000
20
2.566000
0
VERTEX
8
0
10
3.262000
20
2.556000
0
VERTEX
8
0
10
3.281000
20
2.551000
0
VERTEX
8
0
10
3.300000
20
2.549000
0
VERTEX
8
0
10
3.319000
20
2.551000
0
VERTEX
8
0
10
3.337000
20
2.556000
0
VERTEX
8
0
10
3.354000
20
2.566000
0
VERTEX
8
0
10
3.370000
20
2.579000
0
VERTEX
8
0
10
3.406000
20
2.543000
0
SEQEND
8
0
0
POLYLINE
8
0
66
1
40
0.000000
41
0.000000
0
VERTEX
8
0
10
3.406000
20
2.756000
0
VERTEX
8
0
10
3.382000
20
2.775000
0
VERTEX
8
0
10
3.356000
20
2.789000
0
VERTEX
8
0
10
3.328000
20
2.797000
0
VERTEX
8
0
10
3.300000
20
2.800000
0
VERTEX
8
0
10
3.271000
20
2.797000
0
VERTEX
8
0
10
3.243000
20
2.789000
0
VERTEX
8
0
10
3.217000
20
2.775000
0
VERTEX
8
0
10
3.193000
20
2.756000
0
VERTEX
8
0
10
3.229000
20
2.720000
0
VERTEX
8
0
10
3.245000
20
2.733000
0
VERTEX
8
0
10
3.262000
20
2.742000
0
VERTEX
8
0
10
3.281000
20
2.748000
0
VERTEX
8
0
10
3.300000
20
2.750000
0
VERTEX
8
0
10
3.319000
20
2.748000
0
VERTEX
8
0
10
3.337000
20
2.742000
0
VERTEX
8
0
10
3.354000
20
2.733000
0
VERTEX
8
0
10
3.370000
20
2.720000
0
VERTEX
8
0
10
3.406000
20
2.756000
0
SEQEND
8
0
0
CIRCLE
8
128
10
3.300000
20
2.650000
40
0.050000
0
POLYLINE
8
0
66
1
40
0.016000
41
0.016000
0
VERTEX
8
0
10
3.000000
20
2.650000
0
VERTEX
8
0
10
3.100000
20
2.650000
0
SEQEND
8
0
0
POLYLINE
8
0
66
1
40
0.016000
41
0.016000
0
VERTEX
8
0
10
3.600000
20
2.650000
0
VERTEX
8
0
10
3.500000
20
2.650000
0
SEQEND
8
0
0
POLYLINE
8
0
66
1
40
0.008000
41
0.008000
0
VERTEX
8
0
10
3.160000
20
1.680000
0
VERTEX
8
0
10
3.440000
20
1.680000
0
VERTEX
8
0
10
3.440000
20
1.780000
0
VERTEX
8
0
10
3.160000
20
1.780000
0
VERTEX
8
0
10
3.160000
20
1.680000
0
SEQEND
8
0
0
TEXT
8
32768
10
3.100000
20
1.690000
40
0.080000
41
1.000000
1
+88.8
0
CIRCLE
8
128
10
3.300000
20
2.000000
40
0.200000
0
POLYLINE
8
0
66
1
40
0.000000
41
0.000000
0
VERTEX
8
0
10
3.406000
20
1.893000
0
VERTEX
8
0
10
3.382000
20
1.874000
0
VERTEX
8
0
10
3.356000
20
1.860000
0
VERTEX
8
0
10
3.328000
20
1.852000
0
VERTEX
8
0
10
3.300000
20
1.849000
0
VERTEX
8
0
10
3.271000
20
1.852000
0
VERTEX
8
0
10
3.243000
20
1.860000
0
VERTEX
8
0
10
3.217000
20
1.874000
0
VERTEX
8
0
10
3.193000
20
1.893000
0
VERTEX
8
0
10
3.229000
20
1.929000
0
VERTEX
8
0
10
3.245000
20
1.916000
0
VERTEX
8
0
10
3.262000
20
1.906000
0
VERTEX
8
0
10
3.281000
20
1.901000
0
VERTEX
8
0
10
3.300000
20
1.899000
0
VERTEX
8
0
10
3.319000
20
1.901000
0
VERTEX
8
0
10
3.337000
20
1.906000
0
VERTEX
8
0
10
3.354000
20
1.916000
0
VERTEX
8
0
10
3.370000
20
1.929000
0
VERTEX
8
0
10
3.406000
20
1.893000
0
SEQEND
8
0
0
POLYLINE
8
0
66
1
40
0.000000
41
0.000000
0
VERTEX
8
0
10
3.406000
20
2.106000
0
VERTEX
8
0
10
3.382000
20
2.125000
0
VERTEX
8
0
10
3.356000
20
2.139000
0
VERTEX
8
0
10
3.328000
20
2.147000
0
VERTEX
8
0
10
3.300000
20
2.150000
0
VERTEX
8
0
10
3.271000
20
2.147000
0
VERTEX
8
0
10
3.243000
20
2.139000
0
VERTEX
8
0
10
3.217000
20
2.125000
0
VERTEX
8
0
10
3.193000
20
2.106000
0
VERTEX
8
0
10
3.229000
20
2.070000
0
VERTEX
8
0
10
3.245000
20
2.083000
0
VERTEX
8
0
10
3.262000
20
2.092000
0
VERTEX
8
0
10
3.281000
20
2.098000
0
VERTEX
8
0
10
3.300000
20
2.100000
0
VERTEX
8
0
10
3.319000
20
2.098000
0
VERTEX
8
0
10
3.337000
20
2.092000
0
VERTEX
8
0
10
3.354000
20
2.083000
0
VERTEX
8
0
10
3.370000
20
2.070000
0
VERTEX
8
0
10
3.406000
20
2.106000
0
SEQEND
8
0
0
CIRCLE
8
128
10
3.300000
20
2.000000
40
0.050000
0
POLYLINE
8
0
66
1
40
0.016000
41
0.016000
0
VERTEX
8
0
10
3.000000
20
2.000000
0
VERTEX
8
0
10
3.100000
20
2.000000
0
SEQEND
8
0
0
POLYLINE
8
0
66
1
40
0.016000
41
0.016000
0
VERTEX
8
0
10
3.600000
20
2.000000
0
VERTEX
8
0
10
3.500000
20
2.000000
0
SEQEND
8
0
0
POLYLINE
8
0
66
1
40
0.016000
41
0.016000
0
VERTEX
8
0
10
1.300000
20
1.550000
0
VERTEX
8
0
10
1.300000
20
1.450000
0
SEQEND
8
0
0
POLYLINE
8
0
66
1
40
0.016000
41
0.016000
0
VERTEX
8
0
10
1.200000
20
1.450000
0
VERTEX
8
0
10
1.400000
20
1.450000
0
SEQEND
8
0
0
POLYLINE
8
0
66
1
40
0.016000
41
0.016000
0
VERTEX
8
0
10
1.250000
20
1.400000
0
VERTEX
8
0
10
1.350000
20
1.400000
0
SEQEND
8
0
0
POLYLINE
8
0
66
1
40
0.016000
41
0.016000
0
VERTEX
8
0
10
1.290000
20
1.350000
0
VERTEX
8
0
10
1.310000
20
1.350000
0
SEQEND
8
0
0
TEXT
8
16384
10
1.590000
20
-0.598000
40
0.096000
41
0.833333
1
5V for RP
0
POLYLINE
8
0
66
1
40
0.016000
41
0.016000
0
VERTEX
8
0
10
-0.400000
20
-2.700000
0
VERTEX
8
0
10
0.400000
20
-2.700000
0
VERTEX
8
0
10
0.400000
20
-2.300000
0
VERTEX
8
0
10
-0.400000
20
-2.300000
0
VERTEX
8
0
10
-0.400000
20
-2.700000
0
SEQEND
8
0
0
POLYLINE
8
0
66
1
40
0.016000
41
0.016000
0
VERTEX
8
0
10
-0.600000
20
-2.400000
0
VERTEX
8
0
10
-0.400000
20
-2.400000
0
SEQEND
8
0
0
TEXT
8
0
10
-0.350000
20
-2.440000
40
0.080000
41
1.000000
1
VI
0
TEXT
8
0
10
-0.580000
20
-2.390000
40
0.080000
41
1.000000
1
1
0
POLYLINE
8
0
66
1
40
0.016000
41
0.016000
0
VERTEX
8
0
10
0.600000
20
-2.400000
0
VERTEX
8
0
10
0.400000
20
-2.400000
0
SEQEND
8
0
0
TEXT
8
0
10
0.190000
20
-2.440000
40
0.080000
41
1.000000
1
VO
0
TEXT
8
0
10
0.500000
20
-2.390000
40
0.080000
41
1.000000
1
3
0
POLYLINE
8
0
66
1
40
0.016000
41
0.016000
0
VERTEX
8
0
10
0.000000
20
-2.900000
0
VERTEX
8
0
10
0.000000
20
-2.700000
0
SEQEND
8
0
0
TEXT
8
0
10
0.040000
20
-2.650000
40
0.080000
41
1.000000
50
90.000000
1
GND
0
TEXT
8
0
10
-0.010000
20
-2.880000
40
0.080000
41
1.000000
50
90.000000
1
2
0
TEXT
8
0
10
-0.408000
20
-2.077000
40
0.120000
41
0.666667
1
U3
0
TEXT
8
0
10
-0.408000
20
-2.182000
40
0.080000
41
1.000000
1
7805
0
TEXT
8
16384
10
1.070000
20
3.052000
40
0.096000
41
0.833333
1
5V
0
TEXT
8
16384
10
1.380000
20
3.052000
40
0.096000
41
0.833333
1
12V
0
POLYLINE
8
0
66
1
40
0.016000
41
0.016000
0
VERTEX
8
0
10
0.000000
20
-3.100000
0
VERTEX
8
0
10
0.000000
20
-3.200000
0
SEQEND
8
0
0
POLYLINE
8
0
66
1
40
0.016000
41
0.016000
0
VERTEX
8
0
10
-0.100000
20
-3.200000
0
VERTEX
8
0
10
0.100000
20
-3.200000
0
SEQEND
8
0
0
POLYLINE
8
0
66
1
40
0.016000
41
0.016000
0
VERTEX
8
0
10
-0.050000
20
-3.250000
0
VERTEX
8
0
10
0.050000
20
-3.250000
0
SEQEND
8
0
0
POLYLINE
8
0
66
1
40
0.016000
41
0.016000
0
VERTEX
8
0
10
-0.010000
20
-3.300000
0
VERTEX
8
0
10
0.010000
20
-3.300000
0
SEQEND
8
0
0
POLYLINE
8
0
66
1
40
0.016000
41
0.016000
0
VERTEX
8
0
10
2.200000
20
-0.550000
0
VERTEX
8
0
10
2.250000
20
-0.450000
0
VERTEX
8
0
10
2.300000
20
-0.550000
0
VERTEX
8
0
10
2.200000
20
-0.550000
0
SEQEND
8
0
0
POLYLINE
8
0
66
1
40
0.016000
41
0.016000
0
VERTEX
8
0
10
2.250000
20
-0.650000
0
VERTEX
8
0
10
2.250000
20
-0.450000
0
SEQEND
8
0
0
POLYLINE
8
0
66
1
40
0.016000
41
0.016000
0
VERTEX
8
0
10
0.950000
20
-2.100000
0
VERTEX
8
0
10
1.000000
20
-2.000000
0
VERTEX
8
0
10
1.050000
20
-2.100000
0
VERTEX
8
0
10
0.950000
20
-2.100000
0
SEQEND
8
0
0
POLYLINE
8
0
66
1
40
0.016000
41
0.016000
0
VERTEX
8
0
10
1.000000
20
-2.200000
0
VERTEX
8
0
10
1.000000
20
-2.000000
0
SEQEND
8
0
0
TEXT
8
16384
10
-0.310000
20
-2.198000
40
0.096000
41
0.833333
1
5V for motor driver
0
POLYLINE
8
0
66
1
40
0.016000
41
0.016000
0
VERTEX
8
0
10
2.600000
20
-0.940000
0
VERTEX
8
0
10
2.900000
20
-0.940000
0
VERTEX
8
0
10
2.900000
20
-0.860000
0
VERTEX
8
0
10
2.600000
20
-0.860000
0
VERTEX
8
0
10
2.600000
20
-0.940000
0
SEQEND
8
0
0
POLYLINE
8
0
66
1
40
0.016000
41
0.016000
0
VERTEX
8
0
10
3.000000
20
-0.900000
0
VERTEX
8
0
10
2.900000
20
-0.900000
0
SEQEND
8
0
0
POLYLINE
8
0
66
1
40
0.016000
41
0.016000
0
VERTEX
8
0
10
2.500000
20
-0.900000
0
VERTEX
8
0
10
2.600000
20
-0.900000
0
SEQEND
8
0
0
TEXT
8
0
10
2.592000
20
-0.837000
40
0.120000
41
0.666667
1
R1
0
TEXT
8
0
10
2.592000
20
-1.038000
40
0.080000
41
1.000000
1
10k
0
POLYLINE
8
0
66
1
40
0.016000
41
0.016000
0
VERTEX
8
0
10
3.300000
20
-1.250000
0
VERTEX
8
0
10
3.100000
20
-1.250000
0
VERTEX
8
0
10
3.200000
20
-1.350000
0
VERTEX
8
0
10
3.300000
20
-1.250000
0
SEQEND
8
0
0
POLYLINE
8
0
66
1
40
0.016000
41
0.016000
0
VERTEX
8
0
10
3.300000
20
-1.350000
0
VERTEX
8
0
10
3.100000
20
-1.350000
0
SEQEND
8
0
0
POLYLINE
8
0
66
1
40
0.016000
41
0.016000
0
VERTEX
8
0
10
3.300000
20
-1.300000
0
VERTEX
8
0
10
3.400000
20
-1.400000
0
SEQEND
8
0
0
POLYLINE
8
0
66
1
40
0.016000
41
0.016000
0
VERTEX
8
0
10
3.350000
20
-1.300000
0
VERTEX
8
0
10
3.450000
20
-1.400000
0
SEQEND
8
0
0
POLYLINE
8
0
66
1
40
0.016000
41
0.016000
0
VERTEX
8
0
10
3.450000
20
-1.350000
0
VERTEX
8
0
10
3.450000
20
-1.400000
0
VERTEX
8
0
10
3.400000
20
-1.400000
0
SEQEND
8
0
0
POLYLINE
8
0
66
1
40
0.016000
41
0.016000
0
VERTEX
8
0
10
3.400000
20
-1.350000
0
VERTEX
8
0
10
3.400000
20
-1.400000
0
VERTEX
8
0
10
3.350000
20
-1.400000
0
SEQEND
8
0
0
POLYLINE
8
0
66
1
40
0.016000
41
0.016000
0
VERTEX
8
0
10
3.200000
20
-1.150000
0
VERTEX
8
0
10
3.200000
20
-1.250000
0
SEQEND
8
0
0
POLYLINE
8
0
66
1
40
0.016000
41
0.016000
0
VERTEX
8
0
10
3.200000
20
-1.450000
0
VERTEX
8
0
10
3.200000
20
-1.350000
0
SEQEND
8
0
0
TEXT
8
0
10
3.508000
20
-1.377000
40
0.120000
41
0.666667
1
D1
0
TEXT
8
0
10
3.508000
20
-1.482000
40
0.080000
41
1.000000
1
LED
0
POLYLINE
8
0
66
1
40
0.008000
41
0.008000
0
VERTEX
8
0
10
-4.110000
20
-2.950000
0
VERTEX
8
0
10
-3.700000
20
-2.950000
0
VERTEX
8
0
10
-3.700000
20
-2.550000
0
VERTEX
8
0
10
-4.110000
20
-2.550000
0
VERTEX
8
0
10
-4.110000
20
-2.950000
0
SEQEND
8
0
0
POLYLINE
8
0
66
1
40
0.008000
41
0.008000
0
VERTEX
8
0
10
-4.390000
20
-3.000000
0
VERTEX
8
0
10
-4.170000
20
-3.000000
0
VERTEX
8
0
10
-4.170000
20
-2.500000
0
VERTEX
8
0
10
-4.390000
20
-2.500000
0
VERTEX
8
0
10
-4.390000
20
-3.000000
0
SEQEND
8
0
0
POLYLINE
8
0
66
1
40
0.008000
41
0.008000
0
VERTEX
8
0
10
-3.950000
20
-2.700000
0
VERTEX
8
0
10
-3.890000
20
-2.700000
0
VERTEX
8
0
10
-3.890000
20
-2.620000
0
VERTEX
8
0
10
-3.950000
20
-2.620000
0
VERTEX
8
0
10
-3.950000
20
-2.700000
0
SEQEND
8
0
0
POLYLINE
8
0
66
1
40
0.008000
41
0.008000
0
VERTEX
8
0
10
-3.950000
20
-2.880000
0
VERTEX
8
0
10
-3.890000
20
-2.880000
0
VERTEX
8
0
10
-3.890000
20
-2.800000
0
VERTEX
8
0
10
-3.950000
20
-2.800000
0
VERTEX
8
0
10
-3.950000
20
-2.880000
0
SEQEND
8
0
0
POLYLINE
8
0
66
1
40
0.016000
41
0.016000
0
VERTEX
8
0
10
-3.700000
20
-3.000000
0
VERTEX
8
0
10
-2.950000
20
-3.000000
0
VERTEX
8
0
10
-2.950000
20
-2.500000
0
VERTEX
8
0
10
-3.700000
20
-2.500000
0
VERTEX
8
0
10
-3.700000
20
-3.000000
0
SEQEND
8
0
0
CIRCLE
8
0
10
-3.250000
20
-2.749000
40
0.040000
0
POLYLINE
8
0
66
1
40
0.032000
41
0.032000
0
VERTEX
8
0
10
-3.290000
20
-2.749000
0
VERTEX
8
0
10
-3.620000
20
-2.749000
0
SEQEND
8
0
0
POLYLINE
8
0
66
1
40
0.032000
41
0.032000
0
VERTEX
8
0
10
-3.460000
20
-2.659000
0
VERTEX
8
0
10
-3.530000
20
-2.659000
0
SEQEND
8
0
0
POLYLINE
8
0
66
1
40
0.032000
41
0.032000
0
VERTEX
8
0
10
-3.370000
20
-2.749000
0
VERTEX
8
0
10
-3.460000
20
-2.659000
0
SEQEND
8
0
0
CIRCLE
8
0
10
-3.490000
20
-2.839000
40
0.030000
0
POLYLINE
8
0
66
1
40
0.032000
41
0.032000
0
VERTEX
8
0
10
-3.410000
20
-2.839000
0
VERTEX
8
0
10
-3.480000
20
-2.839000
0
SEQEND
8
0
0
POLYLINE
8
0
66
1
40
0.032000
41
0.032000
0
VERTEX
8
0
10
-3.320000
20
-2.749000
0
VERTEX
8
0
10
-3.410000
20
-2.839000
0
SEQEND
8
0
0
POLYLINE
8
0
66
1
40
0.008000
41
0.008000
0
VERTEX
8
0
10
-4.170000
20
-2.970000
0
VERTEX
8
0
10
-4.150000
20
-2.970000
0
VERTEX
8
0
10
-4.150000
20
-2.530000
0
VERTEX
8
0
10
-4.170000
20
-2.530000
0
VERTEX
8
0
10
-4.170000
20
-2.970000
0
SEQEND
8
0
0
POLYLINE
8
0
66
1
40
0.006000
41
0.006000
0
VERTEX
8
0
10
-3.560000
20
-2.690000
0
VERTEX
8
0
10
-3.500000
20
-2.690000
0
VERTEX
8
0
10
-3.500000
20
-2.630000
0
VERTEX
8
0
10
-3.560000
20
-2.630000
0
VERTEX
8
0
10
-3.560000
20
-2.690000
0
SEQEND
8
0
0
POLYLINE
8
0
66
1
40
0.006000
41
0.006000
0
VERTEX
8
0
10
-3.590000
20
-2.780000
0
VERTEX
8
0
10
-3.590000
20
-2.720000
0
VERTEX
8
0
10
-3.650000
20
-2.750000
0
VERTEX
8
0
10
-3.590000
20
-2.780000
0
SEQEND
8
0
0
POLYLINE
8
0
66
1
40
0.016000
41
0.016000
0
VERTEX
8
0
10
-2.750000
20
-2.900000
0
VERTEX
8
0
10
-2.950000
20
-2.900000
0
SEQEND
8
0
0
TEXT
8
0
10
-3.240000
20
-2.940000
40
0.080000
41
1.000000
1
VCC
0
TEXT
8
0
10
-2.850000
20
-2.890000
40
0.080000
41
1.000000
1
1
0
POLYLINE
8
0
66
1
40
0.016000
41
0.016000
0
VERTEX
8
0
10
-2.750000
20
-2.800000
0
VERTEX
8
0
10
-2.950000
20
-2.800000
0
SEQEND
8
0
0
TEXT
8
0
10
-3.160000
20
-2.840000
40
0.080000
41
1.000000
1
D+
0
TEXT
8
0
10
-2.850000
20
-2.790000
40
0.080000
41
1.000000
1
3
0
POLYLINE
8
0
66
1
40
0.016000
41
0.016000
0
VERTEX
8
0
10
-2.750000
20
-2.700000
0
VERTEX
8
0
10
-2.950000
20
-2.700000
0
SEQEND
8
0
0
TEXT
8
0
10
-3.160000
20
-2.740000
40
0.080000
41
1.000000
1
D-
0
TEXT
8
0
10
-2.850000
20
-2.690000
40
0.080000
41
1.000000
1
2
0
POLYLINE
8
0
66
1
40
0.016000
41
0.016000
0
VERTEX
8
0
10
-2.750000
20
-2.600000
0
VERTEX
8
0
10
-2.950000
20
-2.600000
0
SEQEND
8
0
0
TEXT
8
0
10
-3.240000
20
-2.640000
40
0.080000
41
1.000000
1
GND
0
TEXT
8
0
10
-2.850000
20
-2.590000
40
0.080000
41
1.000000
1
4
0
CIRCLE
8
255
10
-3.480000
20
-2.420000
40
0.040000
0
POLYLINE
8
0
66
1
40
0.008000
41
0.008000
0
VERTEX
8
0
10
-3.460000
20
-2.420000
0
VERTEX
8
0
10
-3.470000
20
-2.430000
0
SEQEND
8
0
0
POLYLINE
8
0
66
1
40
0.008000
41
0.008000
0
VERTEX
8
0
10
-3.460000
20
-2.420000
0
VERTEX
8
0
10
-3.470000
20
-2.410000
0
SEQEND
8
0
0
POLYLINE
8
0
66
1
40
0.008000
41
0.008000
0
VERTEX
8
0
10
-3.460000
20
-2.420000
0
VERTEX
8
0
10
-3.500000
20
-2.420000
0
SEQEND
8
0
0
CIRCLE
8
255
10
-3.630000
20
-2.420000
40
0.040000
0
POLYLINE
8
0
66
1
40
0.008000
41
0.008000
0
VERTEX
8
0
10
-3.650000
20
-2.420000
0
VERTEX
8
0
10
-3.640000
20
-2.430000
0
SEQEND
8
0
0
POLYLINE
8
0
66
1
40
0.008000
41
0.008000
0
VERTEX
8
0
10
-3.650000
20
-2.420000
0
VERTEX
8
0
10
-3.640000
20
-2.410000
0
SEQEND
8
0
0
POLYLINE
8
0
66
1
40
0.008000
41
0.008000
0
VERTEX
8
0
10
-3.650000
20
-2.420000
0
VERTEX
8
0
10
-3.610000
20
-2.420000
0
SEQEND
8
0
0
TEXT
8
0
10
-4.394000
20
-2.477000
40
0.120000
41
0.666667
1
J1
0
TEXT
8
0
10
-4.394000
20
-3.098000
40
0.080000
41
1.000000
1
USBCONN
0
POLYLINE
8
0
66
1
40
0.016000
41
0.016000
0
VERTEX
8
0
10
-2.550000
20
-3.100000
0
VERTEX
8
0
10
-1.300000
20
-3.100000
0
VERTEX
8
0
10
-1.300000
20
-2.400000
0
VERTEX
8
0
10
-2.550000
20
-2.400000
0
VERTEX
8
0
10
-2.550000
20
-3.100000
0
SEQEND
8
0
0
TEXT
8
16384
10
-2.110000
20
-2.650000
40
0.200000
41
0.400000
1
Wifi
0
TEXT
8
16384
10
-2.230000
20
-2.950000
40
0.200000
41
0.400000
1
Adapter
0
POLYLINE
8
0
66
1
40
0.016000
41
0.016000
0
VERTEX
8
0
10
-2.550000
20
-2.600000
0
VERTEX
8
0
10
-2.750000
20
-2.600000
0
SEQEND
8
0
0
POLYLINE
8
0
66
1
40
0.016000
41
0.016000
0
VERTEX
8
0
10
-2.550000
20
-2.700000
0
VERTEX
8
0
10
-2.750000
20
-2.700000
0
SEQEND
8
0
0
POLYLINE
8
0
66
1
40
0.016000
41
0.016000
0
VERTEX
8
0
10
-2.550000
20
-2.800000
0
VERTEX
8
0
10
-2.750000
20
-2.800000
0
SEQEND
8
0
0
POLYLINE
8
0
66
1
40
0.016000
41
0.016000
0
VERTEX
8
0
10
-2.550000
20
-2.900000
0
VERTEX
8
0
10
-2.750000
20
-2.900000
0
SEQEND
8
0
0
POLYLINE
8
0
66
1
40
0.008000
41
0.008000
0
VERTEX
8
0
10
-4.110000
20
-1.550000
0
VERTEX
8
0
10
-3.700000
20
-1.550000
0
VERTEX
8
0
10
-3.700000
20
-1.150000
0
VERTEX
8
0
10
-4.110000
20
-1.150000
0
VERTEX
8
0
10
-4.110000
20
-1.550000
0
SEQEND
8
0
0
POLYLINE
8
0
66
1
40
0.008000
41
0.008000
0
VERTEX
8
0
10
-4.390000
20
-1.600000
0
VERTEX
8
0
10
-4.170000
20
-1.600000
0
VERTEX
8
0
10
-4.170000
20
-1.100000
0
VERTEX
8
0
10
-4.390000
20
-1.100000
0
VERTEX
8
0
10
-4.390000
20
-1.600000
0
SEQEND
8
0
0
POLYLINE
8
0
66
1
40
0.008000
41
0.008000
0
VERTEX
8
0
10
-3.950000
20
-1.300000
0
VERTEX
8
0
10
-3.890000
20
-1.300000
0
VERTEX
8
0
10
-3.890000
20
-1.220000
0
VERTEX
8
0
10
-3.950000
20
-1.220000
0
VERTEX
8
0
10
-3.950000
20
-1.300000
0
SEQEND
8
0
0
POLYLINE
8
0
66
1
40
0.008000
41
0.008000
0
VERTEX
8
0
10
-3.950000
20
-1.480000
0
VERTEX
8
0
10
-3.890000
20
-1.480000
0
VERTEX
8
0
10
-3.890000
20
-1.400000
0
VERTEX
8
0
10
-3.950000
20
-1.400000
0
VERTEX
8
0
10
-3.950000
20
-1.480000
0
SEQEND
8
0
0
POLYLINE
8
0
66
1
40
0.016000
41
0.016000
0
VERTEX
8
0
10
-3.700000
20
-1.600000
0
VERTEX
8
0
10
-2.950000
20
-1.600000
0
VERTEX
8
0
10
-2.950000
20
-1.100000
0
VERTEX
8
0
10
-3.700000
20
-1.100000
0
VERTEX
8
0
10
-3.700000
20
-1.600000
0
SEQEND
8
0
0
CIRCLE
8
0
10
-3.250000
20
-1.349000
40
0.040000
0
POLYLINE
8
0
66
1
40
0.032000
41
0.032000
0
VERTEX
8
0
10
-3.290000
20
-1.349000
0
VERTEX
8
0
10
-3.620000
20
-1.349000
0
SEQEND
8
0
0
POLYLINE
8
0
66
1
40
0.032000
41
0.032000
0
VERTEX
8
0
10
-3.460000
20
-1.259000
0
VERTEX
8
0
10
-3.530000
20
-1.259000
0
SEQEND
8
0
0
POLYLINE
8
0
66
1
40
0.032000
41
0.032000
0
VERTEX
8
0
10
-3.370000
20
-1.349000
0
VERTEX
8
0
10
-3.460000
20
-1.259000
0
SEQEND
8
0
0
CIRCLE
8
0
10
-3.490000
20
-1.439000
40
0.030000
0
POLYLINE
8
0
66
1
40
0.032000
41
0.032000
0
VERTEX
8
0
10
-3.410000
20
-1.439000
0
VERTEX
8
0
10
-3.480000
20
-1.439000
0
SEQEND
8
0
0
POLYLINE
8
0
66
1
40
0.032000
41
0.032000
0
VERTEX
8
0
10
-3.320000
20
-1.349000
0
VERTEX
8
0
10
-3.410000
20
-1.439000
0
SEQEND
8
0
0
POLYLINE
8
0
66
1
40
0.008000
41
0.008000
0
VERTEX
8
0
10
-4.170000
20
-1.570000
0
VERTEX
8
0
10
-4.150000
20
-1.570000
0
VERTEX
8
0
10
-4.150000
20
-1.130000
0
VERTEX
8
0
10
-4.170000
20
-1.130000
0
VERTEX
8
0
10
-4.170000
20
-1.570000
0
SEQEND
8
0
0
POLYLINE
8
0
66
1
40
0.006000
41
0.006000
0
VERTEX
8
0
10
-3.560000
20
-1.290000
0
VERTEX
8
0
10
-3.500000
20
-1.290000
0
VERTEX
8
0
10
-3.500000
20
-1.230000
0
VERTEX
8
0
10
-3.560000
20
-1.230000
0
VERTEX
8
0
10
-3.560000
20
-1.290000
0
SEQEND
8
0
0
POLYLINE
8
0
66
1
40
0.006000
41
0.006000
0
VERTEX
8
0
10
-3.590000
20
-1.380000
0
VERTEX
8
0
10
-3.590000
20
-1.320000
0
VERTEX
8
0
10
-3.650000
20
-1.350000
0
VERTEX
8
0
10
-3.590000
20
-1.380000
0
SEQEND
8
0
0
POLYLINE
8
0
66
1
40
0.016000
41
0.016000
0
VERTEX
8
0
10
-2.750000
20
-1.500000
0
VERTEX
8
0
10
-2.950000
20
-1.500000
0
SEQEND
8
0
0
TEXT
8
0
10
-3.240000
20
-1.540000
40
0.080000
41
1.000000
1
VCC
0
TEXT
8
0
10
-2.850000
20
-1.490000
40
0.080000
41
1.000000
1
1
0
POLYLINE
8
0
66
1
40
0.016000
41
0.016000
0
VERTEX
8
0
10
-2.750000
20
-1.400000
0
VERTEX
8
0
10
-2.950000
20
-1.400000
0
SEQEND
8
0
0
TEXT
8
0
10
-3.160000
20
-1.440000
40
0.080000
41
1.000000
1
D+
0
TEXT
8
0
10
-2.850000
20
-1.390000
40
0.080000
41
1.000000
1
3
0
POLYLINE
8
0
66
1
40
0.016000
41
0.016000
0
VERTEX
8
0
10
-2.750000
20
-1.300000
0
VERTEX
8
0
10
-2.950000
20
-1.300000
0
SEQEND
8
0
0
TEXT
8
0
10
-3.160000
20
-1.340000
40
0.080000
41
1.000000
1
D-
0
TEXT
8
0
10
-2.850000
20
-1.290000
40
0.080000
41
1.000000
1
2
0
POLYLINE
8
0
66
1
40
0.016000
41
0.016000
0
VERTEX
8
0
10
-2.750000
20
-1.200000
0
VERTEX
8
0
10
-2.950000
20
-1.200000
0
SEQEND
8
0
0
TEXT
8
0
10
-3.240000
20
-1.240000
40
0.080000
41
1.000000
1
GND
0
TEXT
8
0
10
-2.850000
20
-1.190000
40
0.080000
41
1.000000
1
4
0
CIRCLE
8
255
10
-3.480000
20
-1.020000
40
0.040000
0
POLYLINE
8
0
66
1
40
0.008000
41
0.008000
0
VERTEX
8
0
10
-3.460000
20
-1.020000
0
VERTEX
8
0
10
-3.470000
20
-1.030000
0
SEQEND
8
0
0
POLYLINE
8
0
66
1
40
0.008000
41
0.008000
0
VERTEX
8
0
10
-3.460000
20
-1.020000
0
VERTEX
8
0
10
-3.470000
20
-1.010000
0
SEQEND
8
0
0
POLYLINE
8
0
66
1
40
0.008000
41
0.008000
0
VERTEX
8
0
10
-3.460000
20
-1.020000
0
VERTEX
8
0
10
-3.500000
20
-1.020000
0
SEQEND
8
0
0
CIRCLE
8
255
10
-3.630000
20
-1.020000
40
0.040000
0
POLYLINE
8
0
66
1
40
0.008000
41
0.008000
0
VERTEX
8
0
10
-3.650000
20
-1.020000
0
VERTEX
8
0
10
-3.640000
20
-1.030000
0
SEQEND
8
0
0
POLYLINE
8
0
66
1
40
0.008000
41
0.008000
0
VERTEX
8
0
10
-3.650000
20
-1.020000
0
VERTEX
8
0
10
-3.640000
20
-1.010000
0
SEQEND
8
0
0
POLYLINE
8
0
66
1
40
0.008000
41
0.008000
0
VERTEX
8
0
10
-3.650000
20
-1.020000
0
VERTEX
8
0
10
-3.610000
20
-1.020000
0
SEQEND
8
0
0
TEXT
8
0
10
-4.394000
20
-1.077000
40
0.120000
41
0.666667
1
J2
0
TEXT
8
0
10
-4.394000
20
-1.698000
40
0.080000
41
1.000000
1
USBCONN
0
POLYLINE
8
0
66
1
40
0.016000
41
0.016000
0
VERTEX
8
0
10
-2.500000
20
-1.700000
0
VERTEX
8
0
10
-1.700000
20
-1.700000
0
VERTEX
8
0
10
-1.700000
20
-1.000000
0
VERTEX
8
0
10
-2.500000
20
-1.000000
0
VERTEX
8
0
10
-2.500000
20
-1.700000
0
SEQEND
8
0
0
CIRCLE
8
16384
10
-2.100000
20
-1.350000
40
0.241000
0
CIRCLE
8
16384
10
-2.100000
20
-1.350000
40
0.180000
0
POLYLINE
8
0
66
1
40
0.016000
41
0.016000
0
VERTEX
8
0
10
-2.300000
20
-1.850000
0
VERTEX
8
0
10
-1.900000
20
-1.850000
0
VERTEX
8
0
10
-1.900000
20
-1.800000
0
VERTEX
8
0
10
-2.300000
20
-1.800000
0
VERTEX
8
0
10
-2.300000
20
-1.850000
0
SEQEND
8
0
0
POLYLINE
8
0
66
1
40
0.016000
41
0.016000
0
VERTEX
8
0
10
-2.150000
20
-1.800000
0
VERTEX
8
0
10
-2.050000
20
-1.800000
0
VERTEX
8
0
10
-2.050000
20
-1.700000
0
VERTEX
8
0
10
-2.150000
20
-1.700000
0
VERTEX
8
0
10
-2.150000
20
-1.800000
0
SEQEND
8
0
0
POLYLINE
8
0
66
1
40
0.016000
41
0.016000
0
VERTEX
8
0
10
-2.500000
20
-1.200000
0
VERTEX
8
0
10
-2.750000
20
-1.200000
0
SEQEND
8
0
0
POLYLINE
8
0
66
1
40
0.016000
41
0.016000
0
VERTEX
8
0
10
-2.500000
20
-1.300000
0
VERTEX
8
0
10
-2.750000
20
-1.300000
0
SEQEND
8
0
0
POLYLINE
8
0
66
1
40
0.016000
41
0.016000
0
VERTEX
8
0
10
-2.500000
20
-1.400000
0
VERTEX
8
0
10
-2.750000
20
-1.400000
0
SEQEND
8
0
0
POLYLINE
8
0
66
1
40
0.016000
41
0.016000
0
VERTEX
8
0
10
-2.500000
20
-1.500000
0
VERTEX
8
0
10
-2.750000
20
-1.500000
0
SEQEND
8
0
0
TEXT
8
16384
10
-2.700000
20
-0.900000
40
0.200000
41
0.400000
1
USB camera
0
TEXT
8
16384
10
-1.150000
20
2.578000
40
0.144000
41
0.555556
1
pin 3
0
TEXT
8
16384
10
-1.150000
20
2.228000
40
0.144000
41
0.555556
1
pin 5
0
TEXT
8
16384
10
-1.150000
20
1.928000
40
0.144000
41
0.555556
1
pin 7
0
TEXT
8
16384
10
-1.190000
20
1.678000
40
0.144000
41
0.555556
1
pin 29
0
CIRCLE
8
16384
10
2.250000
20
-0.900000
40
0.020000
0
CIRCLE
8
16384
10
1.300000
20
-1.800000
40
0.020000
0
POLYLINE
8
0
66
1
40
0.016000
41
0.016000
0
VERTEX
8
0
10
-1.000000
20
-2.720000
0
VERTEX
8
0
10
-0.800000
20
-2.720000
0
VERTEX
8
0
10
-0.800000
20
-2.670000
0
VERTEX
8
0
10
-1.000000
20
-2.670000
0
VERTEX
8
0
10
-1.000000
20
-2.720000
0
SEQEND
8
0
0
POLYLINE
8
0
66
1
40
0.016000
41
0.016000
0
VERTEX
8
0
10
-1.000000
20
-2.830000
0
VERTEX
8
0
10
-0.800000
20
-2.830000
0
VERTEX
8
0
10
-0.800000
20
-2.780000
0
VERTEX
8
0
10
-1.000000
20
-2.780000
0
VERTEX
8
0
10
-1.000000
20
-2.830000
0
SEQEND
8
0
0
POLYLINE
8
0
66
1
40
0.016000
41
0.016000
0
VERTEX
8
0
10
-0.900000
20
-2.830000
0
VERTEX
8
0
10
-0.900000
20
-2.850000
0
SEQEND
8
0
0
POLYLINE
8
0
66
1
40
0.016000
41
0.016000
0
VERTEX
8
0
10
-0.900000
20
-2.670000
0
VERTEX
8
0
10
-0.900000
20
-2.650000
0
SEQEND
8
0
0
POLYLINE
8
0
66
1
40
0.016000
41
0.016000
0
VERTEX
8
0
10
-0.850000
20
-2.780000
0
VERTEX
8
0
10
-0.800000
20
-2.830000
0
SEQEND
8
0
0
POLYLINE
8
0
66
1
40
0.016000
41
0.016000
0
VERTEX
8
0
10
-0.900000
20
-2.780000
0
VERTEX
8
0
10
-0.850000
20
-2.830000
0
SEQEND
8
0
0
POLYLINE
8
0
66
1
40
0.016000
41
0.016000
0
VERTEX
8
0
10
-0.950000
20
-2.780000
0
VERTEX
8
0
10
-0.900000
20
-2.830000
0
SEQEND
8
0
0
POLYLINE
8
0
66
1
40
0.016000
41
0.016000
0
VERTEX
8
0
10
-1.000000
20
-2.780000
0
VERTEX
8
0
10
-0.950000
20
-2.830000
0
SEQEND
8
0
0
POLYLINE
8
0
66
1
40
0.016000
41
0.016000
0
VERTEX
8
0
10
-0.900000
20
-2.550000
0
VERTEX
8
0
10
-0.900000
20
-2.650000
0
SEQEND
8
0
0
POLYLINE
8
0
66
1
40
0.016000
41
0.016000
0
VERTEX
8
0
10
-0.900000
20
-2.950000
0
VERTEX
8
0
10
-0.900000
20
-2.850000
0
SEQEND
8
0
0
TEXT
8
0
10
-0.742000
20
-2.777000
40
0.120000
41
0.666667
1
C3
0
TEXT
8
0
10
-0.742000
20
-2.882000
40
0.080000
41
1.000000
1
470uf
0
POLYLINE
8
0
66
1
40
0.016000
41
0.016000
0
VERTEX
8
0
10
0.900000
20
-2.670000
0
VERTEX
8
0
10
1.100000
20
-2.670000
0
VERTEX
8
0
10
1.100000
20
-2.620000
0
VERTEX
8
0
10
0.900000
20
-2.620000
0
VERTEX
8
0
10
0.900000
20
-2.670000
0
SEQEND
8
0
0
POLYLINE
8
0
66
1
40
0.016000
41
0.016000
0
VERTEX
8
0
10
0.900000
20
-2.780000
0
VERTEX
8
0
10
1.100000
20
-2.780000
0
VERTEX
8
0
10
1.100000
20
-2.730000
0
VERTEX
8
0
10
0.900000
20
-2.730000
0
VERTEX
8
0
10
0.900000
20
-2.780000
0
SEQEND
8
0
0
POLYLINE
8
0
66
1
40
0.016000
41
0.016000
0
VERTEX
8
0
10
1.000000
20
-2.780000
0
VERTEX
8
0
10
1.000000
20
-2.800000
0
SEQEND
8
0
0
POLYLINE
8
0
66
1
40
0.016000
41
0.016000
0
VERTEX
8
0
10
1.000000
20
-2.620000
0
VERTEX
8
0
10
1.000000
20
-2.600000
0
SEQEND
8
0
0
POLYLINE
8
0
66
1
40
0.016000
41
0.016000
0
VERTEX
8
0
10
1.050000
20
-2.730000
0
VERTEX
8
0
10
1.100000
20
-2.780000
0
SEQEND
8
0
0
POLYLINE
8
0
66
1
40
0.016000
41
0.016000
0
VERTEX
8
0
10
1.000000
20
-2.730000
0
VERTEX
8
0
10
1.050000
20
-2.780000
0
SEQEND
8
0
0
POLYLINE
8
0
66
1
40
0.016000
41
0.016000
0
VERTEX
8
0
10
0.950000
20
-2.730000
0
VERTEX
8
0
10
1.000000
20
-2.780000
0
SEQEND
8
0
0
POLYLINE
8
0
66
1
40
0.016000
41
0.016000
0
VERTEX
8
0
10
0.900000
20
-2.730000
0
VERTEX
8
0
10
0.950000
20
-2.780000
0
SEQEND
8
0
0
POLYLINE
8
0
66
1
40
0.016000
41
0.016000
0
VERTEX
8
0
10
1.000000
20
-2.500000
0
VERTEX
8
0
10
1.000000
20
-2.600000
0
SEQEND
8
0
0
POLYLINE
8
0
66
1
40
0.016000
41
0.016000
0
VERTEX
8
0
10
1.000000
20
-2.900000
0
VERTEX
8
0
10
1.000000
20
-2.800000
0
SEQEND
8
0
0
TEXT
8
0
10
1.158000
20
-2.727000
40
0.120000
41
0.666667
1
C4
0
TEXT
8
0
10
1.158000
20
-2.832000
40
0.080000
41
1.000000
1
100uf
0
CIRCLE
8
16384
10
0.000000
20
-3.000000
40
0.020000
0
CIRCLE
8
16384
10
1.000000
20
-2.400000
40
0.020000
0
POLYLINE
8
0
66
1
40
0.016000
41
0.016000
0
VERTEX
8
0
10
-0.950000
20
-2.300000
0
VERTEX
8
0
10
-0.900000
20
-2.200000
0
VERTEX
8
0
10
-0.850000
20
-2.300000
0
VERTEX
8
0
10
-0.950000
20
-2.300000
0
SEQEND
8
0
0
POLYLINE
8
0
66
1
40
0.016000
41
0.016000
0
VERTEX
8
0
10
-0.900000
20
-2.400000
0
VERTEX
8
0
10
-0.900000
20
-2.200000
0
SEQEND
8
0
0
TEXT
8
0
10
-1.000000
20
-2.140000
40
0.080000
41
1.000000
1
12V
0
POLYLINE
8
0
66
1
40
0.016000
41
0.016000
0
VERTEX
8
0
10
-0.300000
20
-0.750000
0
VERTEX
8
0
10
-0.250000
20
-0.650000
0
VERTEX
8
0
10
-0.200000
20
-0.750000
0
VERTEX
8
0
10
-0.300000
20
-0.750000
0
SEQEND
8
0
0
POLYLINE
8
0
66
1
40
0.016000
41
0.016000
0
VERTEX
8
0
10
-0.250000
20
-0.850000
0
VERTEX
8
0
10
-0.250000
20
-0.650000
0
SEQEND
8
0
0
CIRCLE
8
16384
10
-0.250000
20
-0.900000
40
0.020000
0
POLYLINE
8
0
66
1
40
0.016000
41
0.016000
0
VERTEX
8
0
10
0.450000
20
-1.320000
0
VERTEX
8
0
10
0.650000
20
-1.320000
0
VERTEX
8
0
10
0.650000
20
-1.270000
0
VERTEX
8
0
10
0.450000
20
-1.270000
0
VERTEX
8
0
10
0.450000
20
-1.320000
0
SEQEND
8
0
0
POLYLINE
8
0
66
1
40
0.016000
41
0.016000
0
VERTEX
8
0
10
0.450000
20
-1.430000
0
VERTEX
8
0
10
0.650000
20
-1.430000
0
VERTEX
8
0
10
0.650000
20
-1.380000
0
VERTEX
8
0
10
0.450000
20
-1.380000
0
VERTEX
8
0
10
0.450000
20
-1.430000
0
SEQEND
8
0
0
POLYLINE
8
0
66
1
40
0.016000
41
0.016000
0
VERTEX
8
0
10
0.550000
20
-1.430000
0
VERTEX
8
0
10
0.550000
20
-1.450000
0
SEQEND
8
0
0
POLYLINE
8
0
66
1
40
0.016000
41
0.016000
0
VERTEX
8
0
10
0.550000
20
-1.270000
0
VERTEX
8
0
10
0.550000
20
-1.250000
0
SEQEND
8
0
0
POLYLINE
8
0
66
1
40
0.016000
41
0.016000
0
VERTEX
8
0
10
0.600000
20
-1.380000
0
VERTEX
8
0
10
0.650000
20
-1.430000
0
SEQEND
8
0
0
POLYLINE
8
0
66
1
40
0.016000
41
0.016000
0
VERTEX
8
0
10
0.550000
20
-1.380000
0
VERTEX
8
0
10
0.600000
20
-1.430000
0
SEQEND
8
0
0
POLYLINE
8
0
66
1
40
0.016000
41
0.016000
0
VERTEX
8
0
10
0.500000
20
-1.380000
0
VERTEX
8
0
10
0.550000
20
-1.430000
0
SEQEND
8
0
0
POLYLINE
8
0
66
1
40
0.016000
41
0.016000
0
VERTEX
8
0
10
0.450000
20
-1.380000
0
VERTEX
8
0
10
0.500000
20
-1.430000
0
SEQEND
8
0
0
POLYLINE
8
0
66
1
40
0.016000
41
0.016000
0
VERTEX
8
0
10
0.550000
20
-1.150000
0
VERTEX
8
0
10
0.550000
20
-1.250000
0
SEQEND
8
0
0
POLYLINE
8
0
66
1
40
0.016000
41
0.016000
0
VERTEX
8
0
10
0.550000
20
-1.550000
0
VERTEX
8
0
10
0.550000
20
-1.450000
0
SEQEND
8
0
0
TEXT
8
0
10
0.708000
20
-1.377000
40
0.120000
41
0.666667
1
C1
0
TEXT
8
0
10
0.708000
20
-1.482000
40
0.080000
41
1.000000
1
470uf
0
CIRCLE
8
16384
10
0.550000
20
-0.900000
40
0.020000
0
CIRCLE
8
16384
10
0.550000
20
-1.800000
40
0.020000
0
POLYLINE
8
0
66
1
40
0.016000
41
0.016000
0
VERTEX
8
0
10
2.150000
20
-1.320000
0
VERTEX
8
0
10
2.350000
20
-1.320000
0
VERTEX
8
0
10
2.350000
20
-1.270000
0
VERTEX
8
0
10
2.150000
20
-1.270000
0
VERTEX
8
0
10
2.150000
20
-1.320000
0
SEQEND
8
0
0
POLYLINE
8
0
66
1
40
0.016000
41
0.016000
0
VERTEX
8
0
10
2.150000
20
-1.430000
0
VERTEX
8
0
10
2.350000
20
-1.430000
0
VERTEX
8
0
10
2.350000
20
-1.380000
0
VERTEX
8
0
10
2.150000
20
-1.380000
0
VERTEX
8
0
10
2.150000
20
-1.430000
0
SEQEND
8
0
0
POLYLINE
8
0
66
1
40
0.016000
41
0.016000
0
VERTEX
8
0
10
2.250000
20
-1.430000
0
VERTEX
8
0
10
2.250000
20
-1.450000
0
SEQEND
8
0
0
POLYLINE
8
0
66
1
40
0.016000
41
0.016000
0
VERTEX
8
0
10
2.250000
20
-1.270000
0
VERTEX
8
0
10
2.250000
20
-1.250000
0
SEQEND
8
0
0
POLYLINE
8
0
66
1
40
0.016000
41
0.016000
0
VERTEX
8
0
10
2.300000
20
-1.380000
0
VERTEX
8
0
10
2.350000
20
-1.430000
0
SEQEND
8
0
0
POLYLINE
8
0
66
1
40
0.016000
41
0.016000
0
VERTEX
8
0
10
2.250000
20
-1.380000
0
VERTEX
8
0
10
2.300000
20
-1.430000
0
SEQEND
8
0
0
POLYLINE
8
0
66
1
40
0.016000
41
0.016000
0
VERTEX
8
0
10
2.200000
20
-1.380000
0
VERTEX
8
0
10
2.250000
20
-1.430000
0
SEQEND
8
0
0
POLYLINE
8
0
66
1
40
0.016000
41
0.016000
0
VERTEX
8
0
10
2.150000
20
-1.380000
0
VERTEX
8
0
10
2.200000
20
-1.430000
0
SEQEND
8
0
0
POLYLINE
8
0
66
1
40
0.016000
41
0.016000
0
VERTEX
8
0
10
2.250000
20
-1.150000
0
VERTEX
8
0
10
2.250000
20
-1.250000
0
SEQEND
8
0
0
POLYLINE
8
0
66
1
40
0.016000
41
0.016000
0
VERTEX
8
0
10
2.250000
20
-1.550000
0
VERTEX
8
0
10
2.250000
20
-1.450000
0
SEQEND
8
0
0
TEXT
8
0
10
2.408000
20
-1.377000
40
0.120000
41
0.666667
1
C2
0
TEXT
8
0
10
2.408000
20
-1.482000
40
0.080000
41
1.000000
1
470uf
0
CIRCLE
8
16384
10
2.250000
20
-1.800000
40
0.020000
0
POLYLINE
8
0
66
1
40
0.016000
41
0.016000
0
VERTEX
8
0
10
0.800000
20
0.000000
0
VERTEX
8
0
10
1.900000
20
0.000000
0
VERTEX
8
0
10
1.900000
20
0.900000
0
VERTEX
8
0
10
0.800000
20
0.900000
0
VERTEX
8
0
10
0.800000
20
0.000000
0
SEQEND
8
0
0
POLYLINE
8
0
66
1
40
0.016000
41
0.016000
0
VERTEX
8
0
10
0.600000
20
0.800000
0
VERTEX
8
0
10
0.800000
20
0.800000
0
SEQEND
8
0
0
TEXT
8
0
10
0.850000
20
0.760000
40
0.080000
41
1.000000
1
IN1
0
TEXT
8
0
10
0.620000
20
0.810000
40
0.080000
41
1.000000
1
2
0
POLYLINE
8
0
66
1
40
0.016000
41
0.016000
0
VERTEX
8
0
10
2.100000
20
0.800000
0
VERTEX
8
0
10
1.900000
20
0.800000
0
SEQEND
8
0
0
TEXT
8
0
10
1.530000
20
0.760000
40
0.080000
41
1.000000
1
OUT1
0
TEXT
8
0
10
2.000000
20
0.810000
40
0.080000
41
1.000000
1
3
0
POLYLINE
8
0
66
1
40
0.016000
41
0.016000
0
VERTEX
8
0
10
2.100000
20
0.700000
0
VERTEX
8
0
10
1.900000
20
0.700000
0
SEQEND
8
0
0
TEXT
8
0
10
1.530000
20
0.660000
40
0.080000
41
1.000000
1
OUT2
0
TEXT
8
0
10
2.000000
20
0.710000
40
0.080000
41
1.000000
1
6
0
POLYLINE
8
0
66
1
40
0.016000
41
0.016000
0
VERTEX
8
0
10
2.100000
20
0.200000
0
VERTEX
8
0
10
1.900000
20
0.200000
0
SEQEND
8
0
0
TEXT
8
0
10
1.530000
20
0.160000
40
0.080000
41
1.000000
1
OUT3
0
TEXT
8
0
10
2.000000
20
0.210000
40
0.080000
41
1.000000
1
11
0
POLYLINE
8
0
66
1
40
0.016000
41
0.016000
0
VERTEX
8
0
10
2.100000
20
0.100000
0
VERTEX
8
0
10
1.900000
20
0.100000
0
SEQEND
8
0
0
TEXT
8
0
10
1.530000
20
0.060000
40
0.080000
41
1.000000
1
OUT4
0
TEXT
8
0
10
2.000000
20
0.110000
40
0.080000
41
1.000000
1
14
0
POLYLINE
8
0
66
1
40
0.016000
41
0.016000
0
VERTEX
8
0
10
0.600000
20
0.700000
0
VERTEX
8
0
10
0.800000
20
0.700000
0
SEQEND
8
0
0
TEXT
8
0
10
0.850000
20
0.660000
40
0.080000
41
1.000000
1
IN2
0
TEXT
8
0
10
0.620000
20
0.710000
40
0.080000
41
1.000000
1
7
0
POLYLINE
8
0
66
1
40
0.016000
41
0.016000
0
VERTEX
8
0
10
0.600000
20
0.200000
0
VERTEX
8
0
10
0.800000
20
0.200000
0
SEQEND
8
0
0
TEXT
8
0
10
0.850000
20
0.160000
40
0.080000
41
1.000000
1
IN3
0
TEXT
8
0
10
0.540000
20
0.210000
40
0.080000
41
1.000000
1
10
0
POLYLINE
8
0
66
1
40
0.016000
41
0.016000
0
VERTEX
8
0
10
0.600000
20
0.100000
0
VERTEX
8
0
10
0.800000
20
0.100000
0
SEQEND
8
0
0
TEXT
8
0
10
0.850000
20
0.060000
40
0.080000
41
1.000000
1
IN4
0
TEXT
8
0
10
0.540000
20
0.110000
40
0.080000
41
1.000000
1
15
0
POLYLINE
8
0
66
1
40
0.016000
41
0.016000
0
VERTEX
8
0
10
0.600000
20
0.600000
0
VERTEX
8
0
10
0.800000
20
0.600000
0
SEQEND
8
0
0
TEXT
8
0
10
0.850000
20
0.560000
40
0.080000
41
1.000000
1
EN1
0
TEXT
8
0
10
0.620000
20
0.610000
40
0.080000
41
1.000000
1
1
0
POLYLINE
8
0
66
1
40
0.016000
41
0.016000
0
VERTEX
8
0
10
0.600000
20
0.300000
0
VERTEX
8
0
10
0.800000
20
0.300000
0
SEQEND
8
0
0
TEXT
8
0
10
0.850000
20
0.260000
40
0.080000
41
1.000000
1
EN2
0
TEXT
8
0
10
0.620000
20
0.310000
40
0.080000
41
1.000000
1
9
0
POLYLINE
8
0
66
1
40
0.016000
41
0.016000
0
VERTEX
8
0
10
1.500000
20
1.100000
0
VERTEX
8
0
10
1.500000
20
0.900000
0
SEQEND
8
0
0
TEXT
8
0
10
1.420000
20
0.760000
40
0.080000
41
1.000000
1
VS
0
TEXT
8
0
10
1.525000
20
1.010000
40
0.080000
41
1.000000
1
8
0
POLYLINE
8
0
66
1
40
0.016000
41
0.016000
0
VERTEX
8
0
10
1.200000
20
1.100000
0
VERTEX
8
0
10
1.200000
20
0.900000
0
SEQEND
8
0
0
TEXT
8
0
10
1.080000
20
0.760000
40
0.080000
41
1.000000
1
VSS
0
TEXT
8
0
10
1.225000
20
1.010000
40
0.080000
41
1.000000
1
16
0
POLYLINE
8
0
66
1
40
0.016000
41
0.016000
0
VERTEX
8
0
10
1.200000
20
-0.200000
0
VERTEX
8
0
10
1.200000
20
0.000000
0
SEQEND
8
0
0
TEXT
8
0
10
1.080000
20
0.060000
40
0.080000
41
1.000000
1
GND
0
POLYLINE
8
0
66
1
40
0.016000
41
0.016000
0
VERTEX
8
0
10
1.500000
20
-0.200000
0
VERTEX
8
0
10
1.500000
20
0.000000
0
SEQEND
8
0
0
TEXT
8
0
10
1.380000
20
0.060000
40
0.080000
41
1.000000
1
GND
0
TEXT
8
0
10
1.908000
20
1.023000
40
0.120000
41
0.666667
1
U4
0
TEXT
8
0
10
1.908000
20
-0.198000
40
0.080000
41
1.000000
1
L293D
0
CIRCLE
8
16384
10
1.300000
20
1.600000
40
0.020000
0
POLYLINE
8
0
66
1
40
0.016000
41
0.016000
0
VERTEX
8
0
10
1.350000
20
-0.350000
0
VERTEX
8
0
10
1.350000
20
-0.450000
0
SEQEND
8
0
0
POLYLINE
8
0
66
1
40
0.016000
41
0.016000
0
VERTEX
8
0
10
1.250000
20
-0.450000
0
VERTEX
8
0
10
1.450000
20
-0.450000
0
SEQEND
8
0
0
POLYLINE
8
0
66
1
40
0.016000
41
0.016000
0
VERTEX
8
0
10
1.300000
20
-0.500000
0
VERTEX
8
0
10
1.400000
20
-0.500000
0
SEQEND
8
0
0
POLYLINE
8
0
66
1
40
0.016000
41
0.016000
0
VERTEX
8
0
10
1.340000
20
-0.550000
0
VERTEX
8
0
10
1.360000
20
-0.550000
0
SEQEND
8
0
0
CIRCLE
8
16384
10
1.350000
20
-0.300000
40
0.020000
0
TEXT
8
128
10
1.380000
20
1.140000
40
0.120000
41
0.666667
1
12V
0
TEXT
8
128
10
1.070000
20
1.140000
40
0.120000
41
0.666667
1
5V
0
POLYLINE
8
0
66
1
40
0.016000
41
0.016000
0
VERTEX
8
0
10
0.100000
20
2.350000
0
VERTEX
8
0
10
0.150000
20
2.450000
0
VERTEX
8
0
10
0.200000
20
2.350000
0
VERTEX
8
0
10
0.100000
20
2.350000
0
SEQEND
8
0
0
POLYLINE
8
0
66
1
40
0.016000
41
0.016000
0
VERTEX
8
0
10
0.150000
20
2.250000
0
VERTEX
8
0
10
0.150000
20
2.450000
0
SEQEND
8
0
0
CIRCLE
8
16384
10
0.350000
20
2.200000
40
0.020000
0
TEXT
8
128
10
-0.130000
20
2.290000
40
0.120000
41
0.666667
1
5V
0
CIRCLE
8
16384
10
-0.650000
20
2.650000
40
0.020000
0
CIRCLE
8
16384
10
-0.650000
20
2.300000
40
0.020000
0
CIRCLE
8
16384
10
-0.650000
20
2.000000
40
0.020000
0
CIRCLE
8
16384
10
-0.650000
20
1.800000
40
0.020000
0
POLYLINE
8
0
66
1
40
0.008000
41
0.008000
0
VERTEX
8
0
10
3.110000
20
0.580000
0
VERTEX
8
0
10
3.390000
20
0.580000
0
VERTEX
8
0
10
3.390000
20
0.680000
0
VERTEX
8
0
10
3.110000
20
0.680000
0
VERTEX
8
0
10
3.110000
20
0.580000
0
SEQEND
8
0
0
TEXT
8
32768
10
3.050000
20
0.590000
40
0.080000
41
1.000000
1
+88.8
0
CIRCLE
8
128
10
3.250000
20
0.900000
40
0.200000
0
POLYLINE
8
0
66
1
40
0.000000
41
0.000000
0
VERTEX
8
0
10
3.356000
20
0.793000
0
VERTEX
8
0
10
3.332000
20
0.774000
0
VERTEX
8
0
10
3.306000
20
0.760000
0
VERTEX
8
0
10
3.278000
20
0.752000
0
VERTEX
8
0
10
3.250000
20
0.749000
0
VERTEX
8
0
10
3.221000
20
0.752000
0
VERTEX
8
0
10
3.193000
20
0.760000
0
VERTEX
8
0
10
3.167000
20
0.774000
0
VERTEX
8
0
10
3.143000
20
0.793000
0
VERTEX
8
0
10
3.179000
20
0.829000
0
VERTEX
8
0
10
3.195000
20
0.816000
0
VERTEX
8
0
10
3.212000
20
0.806000
0
VERTEX
8
0
10
3.231000
20
0.801000
0
VERTEX
8
0
10
3.250000
20
0.799000
0
VERTEX
8
0
10
3.269000
20
0.801000
0
VERTEX
8
0
10
3.287000
20
0.806000
0
VERTEX
8
0
10
3.304000
20
0.816000
0
VERTEX
8
0
10
3.320000
20
0.829000
0
VERTEX
8
0
10
3.356000
20
0.793000
0
SEQEND
8
0
0
POLYLINE
8
0
66
1
40
0.000000
41
0.000000
0
VERTEX
8
0
10
3.356000
20
1.006000
0
VERTEX
8
0
10
3.332000
20
1.025000
0
VERTEX
8
0
10
3.306000
20
1.039000
0
VERTEX
8
0
10
3.278000
20
1.047000
0
VERTEX
8
0
10
3.250000
20
1.050000
0
VERTEX
8
0
10
3.221000
20
1.047000
0
VERTEX
8
0
10
3.193000
20
1.039000
0
VERTEX
8
0
10
3.167000
20
1.025000
0
VERTEX
8
0
10
3.143000
20
1.006000
0
VERTEX
8
0
10
3.179000
20
0.970000
0
VERTEX
8
0
10
3.195000
20
0.983000
0
VERTEX
8
0
10
3.212000
20
0.992000
0
VERTEX
8
0
10
3.231000
20
0.998000
0
VERTEX
8
0
10
3.250000
20
1.000000
0
VERTEX
8
0
10
3.269000
20
0.998000
0
VERTEX
8
0
10
3.287000
20
0.992000
0
VERTEX
8
0
10
3.304000
20
0.983000
0
VERTEX
8
0
10
3.320000
20
0.970000
0
VERTEX
8
0
10
3.356000
20
1.006000
0
SEQEND
8
0
0
CIRCLE
8
128
10
3.250000
20
0.900000
40
0.050000
0
POLYLINE
8
0
66
1
40
0.016000
41
0.016000
0
VERTEX
8
0
10
2.950000
20
0.900000
0
VERTEX
8
0
10
3.050000
20
0.900000
0
SEQEND
8
0
0
POLYLINE
8
0
66
1
40
0.016000
41
0.016000
0
VERTEX
8
0
10
3.550000
20
0.900000
0
VERTEX
8
0
10
3.450000
20
0.900000
0
SEQEND
8
0
0
TEXT
8
128
10
-1.090000
20
0.690000
40
0.120000
41
0.666667
1
pin 13
0
TEXT
8
128
10
-1.090000
20
0.440000
40
0.120000
41
0.666667
1
pin 15
0
CIRCLE
8
16384
10
-0.600000
20
0.750000
40
0.020000
0
CIRCLE
8
16384
10
-0.600000
20
0.500000
40
0.020000
0
POLYLINE
8
0
66
1
40
0.016000
41
0.016000
0
VERTEX
8
0
10
0.150000
20
0.500000
0
VERTEX
8
0
10
0.200000
20
0.600000
0
VERTEX
8
0
10
0.250000
20
0.500000
0
VERTEX
8
0
10
0.150000
20
0.500000
0
SEQEND
8
0
0
POLYLINE
8
0
66
1
40
0.016000
41
0.016000
0
VERTEX
8
0
10
0.200000
20
0.400000
0
VERTEX
8
0
10
0.200000
20
0.600000
0
SEQEND
8
0
0
TEXT
8
128
10
-0.030000
20
0.390000
40
0.120000
41
0.666667
1
5V
0
POLYLINE
8
0
66
1
40
0.016000
41
0.016000
0
VERTEX
8
0
10
-1.000000
20
-0.450000
0
VERTEX
8
0
10
-0.300000
20
-0.450000
0
VERTEX
8
0
10
-0.300000
20
-0.050000
0
VERTEX
8
0
10
-1.000000
20
-0.050000
0
VERTEX
8
0
10
-1.000000
20
-0.450000
0
SEQEND
8
0
0
CIRCLE
8
128
10
-0.600000
20
-0.250000
40
0.180000
0
POLYLINE
8
0
66
1
40
0.016000
41
0.016000
0
VERTEX
8
0
10
-1.000000
20
-0.150000
0
VERTEX
8
0
10
-1.200000
20
-0.150000
0
SEQEND
8
0
0
POLYLINE
8
0
66
1
40
0.016000
41
0.016000
0
VERTEX
8
0
10
-1.000000
20
-0.250000
0
VERTEX
8
0
10
-1.200000
20
-0.250000
0
SEQEND
8
0
0
POLYLINE
8
0
66
1
40
0.016000
41
0.016000
0
VERTEX
8
0
10
-1.000000
20
-0.350000
0
VERTEX
8
0
10
-1.200000
20
-0.350000
0
SEQEND
8
0
0
TEXT
8
128
10
-1.270000
20
-0.102000
40
0.104000
41
0.769231
1
VCC
0
TEXT
8
128
10
-1.320000
20
-0.502000
40
0.104000
41
0.769231
1
GND
0
TEXT
8
128
10
-2.100000
20
-0.102000
40
0.104000
41
0.769231
1
Pin 1
0
TEXT
8
128
10
-2.060000
20
-0.252000
40
0.104000
41
0.769231
1
Pin6
0
TEXT
8
128
10
-2.140000
20
-0.402000
40
0.104000
41
0.769231
1
Pin 11
0
POLYLINE
8
0
66
1
40
0.016000
41
0.016000
0
VERTEX
8
0
10
-1.200000
20
-0.350000
0
VERTEX
8
0
10
-1.700000
20
-0.350000
0
SEQEND
8
0
0
POLYLINE
8
0
66
1
40
0.016000
41
0.016000
0
VERTEX
8
0
10
-1.200000
20
-0.250000
0
VERTEX
8
0
10
-1.700000
20
-0.250000
0
SEQEND
8
0
0
POLYLINE
8
0
66
1
40
0.016000
41
0.016000
0
VERTEX
8
0
10
-1.200000
20
-0.150000
0
VERTEX
8
0
10
-1.400000
20
-0.150000
0
SEQEND
8
0
0
POLYLINE
8
0
66
1
40
0.016000
41
0.016000
0
VERTEX
8
0
10
-1.400000
20
-0.050000
0
VERTEX
8
0
10
-1.400000
20
-0.150000
0
SEQEND
8
0
0
POLYLINE
8
0
66
1
40
0.016000
41
0.016000
0
VERTEX
8
0
10
-1.400000
20
-0.050000
0
VERTEX
8
0
10
-1.700000
20
-0.050000
0
SEQEND
8
0
0
TEXT
8
128
10
3.610000
20
2.640000
40
0.120000
41
0.666667
1
Left drive Motor
0
TEXT
8
128
10
3.570000
20
1.690000
40
0.120000
41
0.666667
1
Right drive Motor
0
TEXT
8
128
10
2.940000
20
0.290000
40
0.120000
41
0.666667
1
Arm Motor
0
TEXT
8
128
10
-1.000000
20
-0.010000
40
0.120000
41
0.666667
1
Gas Sensor
0
TEXT
8
128
10
-0.400000
20
-1.436000
40
0.072000
41
1.111111
1
1.2Ah
0
TEXT
8
128
10
-0.360000
20
-1.536000
40
0.072000
41
1.111111
1
Lead
0
TEXT
8
128
10
-0.630000
20
-1.636000
40
0.072000
41
1.111111
1
Acid Battery
0
TEXT
8
128
10
-0.100000
20
-1.036000
40
0.072000
41
1.111111
1
Swich
0
ENDSEC
0
EOF

